<?xml version="1.0" encoding="utf-8"?>
<!-- Generator: Adobe Illustrator 16.0.0, SVG Export Plug-In . SVG Version: 6.00 Build 0)  -->
<!DOCTYPE svg PUBLIC "-//W3C//DTD SVG 1.1//EN" "http://www.w3.org/Graphics/SVG/1.1/DTD/svg11.dtd" [
	<!ENTITY ns_extend "http://ns.adobe.com/Extensibility/1.0/">
	<!ENTITY ns_ai "http://ns.adobe.com/AdobeIllustrator/10.0/">
	<!ENTITY ns_graphs "http://ns.adobe.com/Graphs/1.0/">
	<!ENTITY ns_vars "http://ns.adobe.com/Variables/1.0/">
	<!ENTITY ns_imrep "http://ns.adobe.com/ImageReplacement/1.0/">
	<!ENTITY ns_sfw "http://ns.adobe.com/SaveForWeb/1.0/">
	<!ENTITY ns_custom "http://ns.adobe.com/GenericCustomNamespace/1.0/">
	<!ENTITY ns_adobe_xpath "http://ns.adobe.com/XPath/1.0/">
]>
<svg version="1.1" xmlns:x="&ns_extend;" xmlns:i="&ns_ai;" xmlns:graph="&ns_graphs;"
	 xmlns="http://www.w3.org/2000/svg" xmlns:xlink="http://www.w3.org/1999/xlink" x="0px" y="0px" width="769px" height="335px"
	 viewBox="0 0 769 335" enable-background="new 0 0 769 335" xml:space="preserve">
<metadata>
	<sfw  xmlns="&ns_sfw;">
		<slices></slices>
		<sliceSourceBounds  height="330.153" width="21666.52" y="-312.651" x="-11702.398" bottomLeftOrigin="true"></sliceSourceBounds>
	</sfw>
</metadata>
<g id="Layer_1">
	<path fill="#E2DFDE" d="M186.565,280.316c0-123.316,99.968-223.285,223.284-223.285c123.317,0,223.284,99.969,223.284,223.285"/>
	<circle fill="#857A7A" cx="175.088" cy="171.318" r="3"/>
	<line fill="none" stroke="#857A7A" stroke-miterlimit="10" x1="175.088" y1="171.318" x2="246.416" y2="171.318"/>
	<g>
		<text transform="matrix(1 0 0 1 69.2378 173.7822)" fill="#857A7A" font-family="'DINNextLTPro-Bold'" font-size="10">Their Safety = Priority</text>
	</g>
	<g>
		<text transform="matrix(1 0 0 1 84.6313 54.0303)"><tspan x="0" y="0" fill="#857A7A" font-family="'DINNextLTPro-Bold'" font-size="10">How to work safe ‹ </tspan><tspan x="5.98" y="12" fill="#857A7A" font-family="'DINNextLTPro-Bold'" font-size="10">All areas of risk ‹ </tspan><tspan x="-51.389" y="24" fill="#857A7A" font-family="'DINNextLTPro-Bold'" font-size="10">How to support others safety ‹</tspan></text>
	</g>
	<circle fill="#D45A2A" cx="637.254" cy="225.602" r="3"/>
	<line fill="none" stroke="#D45A2A" stroke-miterlimit="10" x1="637.254" y1="225.602" x2="570.082" y2="225.602"/>
	<g>
	</g>
	<polyline fill="none" stroke="#857A7A" stroke-miterlimit="10" points="175.315,96.48 272.39,96.48 331.569,149.069 	"/>
	<g>
		<text transform="matrix(1 0 0 1 113.4009 98.9468)"><tspan x="0" y="0" fill="#857A7A" font-family="'DINNextLTPro-Bold'" font-size="10">Risk Areas ‹ </tspan><tspan x="-24.209" y="12" fill="#857A7A" font-family="'DINNextLTPro-Bold'" font-size="10">Safety Practices ‹ </tspan><tspan x="-35.319" y="24" fill="#857A7A" font-family="'DINNextLTPro-Bold'" font-size="10">Reporting Protocol ‹</tspan></text>
	</g>
	<circle fill="#857A7A" cx="175.542" cy="96.536" r="3"/>
	<circle fill="#857A7A" cx="175.755" cy="251.962" r="3"/>
	<line fill="none" stroke="#857A7A" stroke-miterlimit="10" x1="175.755" y1="251.962" x2="213.582" y2="251.962"/>
	<g>
		<text transform="matrix(1 0 0 1 69.2378 254.4248)"><tspan x="0" y="0" fill="#857A7A" font-family="'DINNextLTPro-Bold'" font-size="10">Their Safety = Priority</tspan><tspan x="97.769" y="0" fill="#857A7A" font-family="'DINNextLTPro-Regular'" font-size="10">  </tspan></text>
	</g>
	<g>
		<polyline fill="none" stroke="#857A7A" stroke-miterlimit="10" points="636,51.478 482.037,51.478 436.424,97.091 		"/>
		<circle fill="#857A7A" cx="636.264" cy="51.533" r="3"/>
	</g>
	<g>
		<polyline fill="none" stroke="#857A7A" stroke-miterlimit="10" points="175.725,51.478 335.946,51.478 381.559,97.091 		"/>
		<circle fill="#857A7A" cx="175.46" cy="51.533" r="3"/>
	</g>
	<text transform="matrix(1 0 0 1 646.6133 54.0293)"><tspan x="0" y="0" fill="#857A7A" font-family="'DINNextLTPro-Bold'" font-size="10">Safety =  </tspan><tspan x="0" y="12" fill="#857A7A" font-family="'DINNextLTPro-Bold'" font-size="10">Priority for self and others</tspan></text>
	<text transform="matrix(1 0 0 1 646.6133 228.9355)"><tspan x="0" y="0" fill="#D45A2A" font-family="'DINNextLTPro-Bold'" font-size="10">› Reporting  </tspan><tspan x="0" y="12" fill="#D45A2A" font-family="'DINNextLTPro-Bold'" font-size="10">› Counsel/Coach </tspan><tspan x="0" y="24" fill="#D45A2A" font-family="'DINNextLTPro-Bold'" font-size="10">› Fix Issues</tspan></text>
	<text transform="matrix(1 0 0 1 6.7412 20.5117)" fill="#D45A2A" font-family="'DINNextLTPro-Bold'" font-size="22.6357">Associate Awareness Scale</text>
	<path fill="#E2DFDE" d="M379.792,280.316c0-16.6,13.457-30.057,30.057-30.057c16.6,0,30.057,13.457,30.057,30.057"/>
	<g>
		<g>
			<g>
				<g>
					<path fill="#A69D9D" d="M410.169,280.262L331.671,95.333c25.533-10.839,50.76-15.971,78.498-15.971V280.262z"/>
				</g>
			</g>
			<g>
				<g>
					<path fill="#CBC6C5" d="M410.169,280.262L268.112,138.205c19.614-19.614,38.026-32.033,63.56-42.871L410.169,280.262z"/>
				</g>
			</g>
			<g>
				<g>
					<path fill="#A69D9D" d="M410.169,280.262l-186.271-75.259c10.391-25.719,24.6-47.186,44.214-66.799L410.169,280.262z"/>
				</g>
			</g>
			<g>
				<g>
					<path fill="#CBC6C5" d="M410.169,280.262h-200.9c0-27.739,4.238-49.54,14.629-75.259L410.169,280.262z"/>
				</g>
			</g>
			<g>
				<g>
					<path fill="#D45A2A" d="M410.169,280.262l184.93-78.498c10.838,25.534,15.971,50.759,15.971,78.498H410.169z"/>
				</g>
			</g>
			<g>
				<g>
					<path fill="#CBC6C5" d="M410.169,280.262l142.059-142.058c19.613,19.613,32.033,38.026,42.871,63.56L410.169,280.262z"/>
				</g>
			</g>
			<g>
				<g>
					<path fill="#A69D9D" d="M410.169,280.262l75.258-186.271c25.719,10.391,47.186,24.599,66.801,44.213L410.169,280.262z"/>
				</g>
			</g>
			<g>
				<g>
					<path fill="#CBC6C5" d="M410.169,280.262V79.363c27.739,0,49.54,4.237,75.258,14.629L410.169,280.262z"/>
				</g>
			</g>
		</g>
		<g>
			<g>
			</g>
			<g>
			</g>
			<g>
			</g>
			<g>
			</g>
			<g>
			</g>
			<g>
			</g>
			<g>
			</g>
			<g>
			</g>
			<g>
			</g>
			<g>
			</g>
			<g>
			</g>
			<g>
			</g>
			<g>
			</g>
			<g>
			</g>
			<g>
			</g>
			<g>
			</g>
		</g>
	</g>
	<g>
		<path fill="#FFFFFF" d="M246.085,194.343c-0.048-0.053-0.063-0.118-0.023-0.187l0.729-1.246c0.041-0.069,0.104-0.084,0.175-0.071
			l7.858,1.548c0.069,0.016,0.097,0.058,0.058,0.126l-0.754,1.287c-0.041,0.069-0.093,0.09-0.172,0.07l-1.403-0.302l-1.377,2.351
			l0.955,1.065c0.058,0.06,0.063,0.116,0.023,0.187l-0.758,1.294c-0.041,0.07-0.091,0.065-0.139,0.011L246.085,194.343z
			 M251.083,195.238l-2.798-0.615l-0.018,0.03l1.907,2.138L251.083,195.238z"/>
		<path fill="#FFFFFF" d="M258.093,189.124c-0.041,0.069-0.106,0.083-0.176,0.066l-4.842-1.372l-0.012,0.021l3.427,3.691
			c0.046,0.053,0.062,0.118,0.02,0.187l-0.597,0.977c-0.036,0.06-0.1,0.074-0.168,0.057l-7.509-2.22
			c-0.064-0.025-0.092-0.069-0.051-0.138l0.771-1.262c0.042-0.068,0.104-0.085,0.169-0.058l4.762,1.591l0.012-0.018l-3.483-3.687
			c-0.047-0.054-0.062-0.117-0.021-0.186l0.52-0.852c0.035-0.058,0.1-0.073,0.169-0.058l4.894,1.377l0.011-0.019l-3.614-3.47
			c-0.064-0.052-0.069-0.108-0.026-0.177l0.764-1.252c0.041-0.068,0.092-0.065,0.143-0.019l5.411,5.653
			c0.054,0.046,0.063,0.118,0.021,0.187L258.093,189.124z"/>
		<path fill="#FFFFFF" d="M254.834,179.951c-0.045-0.057-0.057-0.123-0.013-0.187l0.792-1.208c0.043-0.066,0.109-0.08,0.179-0.061
			l7.769,1.95c0.07,0.02,0.095,0.064,0.05,0.13l-0.817,1.246c-0.044,0.066-0.097,0.085-0.178,0.061l-1.384-0.376l-1.498,2.28
			l0.902,1.113c0.055,0.064,0.056,0.12,0.013,0.188l-0.825,1.253c-0.045,0.067-0.096,0.062-0.142,0.005L254.834,179.951z
			 M259.783,181.104l-2.763-0.76l-0.02,0.027l1.792,2.237L259.783,181.104z"/>
		<path fill="#FFFFFF" d="M266.62,176.28c-0.059,0.084-0.107,0.093-0.194,0.075l-3.108-0.54l-0.599,0.856
			c-0.024,0.037-0.019,0.07,0.019,0.095l2.283,1.597c0.056,0.042,0.066,0.105,0.026,0.162l-0.834,1.192
			c-0.041,0.058-0.104,0.067-0.16,0.029l-6.201-4.341c-0.056-0.04-0.069-0.104-0.029-0.16l1.785-2.545
			c0.913-1.306,2.335-1.598,3.5-0.781c0.817,0.572,1.161,1.458,0.979,2.378l3.399,0.504c0.077,0.01,0.113,0.079,0.068,0.145
			L266.62,176.28z M262.141,173.297c-0.481-0.336-1.025-0.214-1.394,0.312l-0.79,1.128c-0.025,0.036-0.021,0.069,0.017,0.094
			l1.477,1.033c0.037,0.026,0.068,0.02,0.095-0.017l0.788-1.126C262.703,174.195,262.629,173.64,262.141,173.297z"/>
		<path fill="#FFFFFF" d="M262.058,169.457c-0.055-0.042-0.064-0.105-0.023-0.161l2.977-4.012c0.042-0.055,0.107-0.064,0.162-0.025
			l0.983,0.73c0.056,0.042,0.066,0.106,0.024,0.162l-2,2.697c-0.028,0.036-0.022,0.068,0.013,0.096l1.242,0.922
			c0.038,0.027,0.07,0.023,0.098-0.014l1.666-2.246c0.042-0.055,0.106-0.065,0.162-0.024l0.976,0.726
			c0.053,0.041,0.063,0.104,0.021,0.16l-1.666,2.246c-0.027,0.035-0.022,0.068,0.013,0.096l1.299,0.962
			c0.036,0.029,0.068,0.023,0.095-0.013l2.003-2.697c0.041-0.055,0.104-0.064,0.158-0.025l0.986,0.733
			c0.055,0.04,0.063,0.103,0.024,0.16l-2.979,4.012c-0.042,0.055-0.105,0.064-0.159,0.024L262.058,169.457z"/>
	</g>
	<g>
		<path fill="#FFFFFF" d="M291.922,131.562c-0.036-0.045-0.029-0.099,0.017-0.135l1.723-1.348c0.864-0.679,1.722-0.759,2.522-0.218
			c0.307,0.206,0.57,0.45,1.282,1.359c0.714,0.909,0.887,1.224,1.016,1.572c0.331,0.903,0.051,1.721-0.816,2.398l-1.722,1.349
			c-0.046,0.034-0.099,0.029-0.134-0.018L291.922,131.562z M296.094,135.417l0.94-0.737c0.617-0.482,0.84-0.986,0.617-1.612
			c-0.078-0.242-0.235-0.52-0.861-1.315c-0.624-0.797-0.855-1.017-1.071-1.15c-0.554-0.369-1.096-0.271-1.715,0.213l-0.938,0.736
			c-0.03,0.023-0.034,0.052-0.012,0.081l2.957,3.773C296.036,135.437,296.064,135.439,296.094,135.417z"/>
		<path fill="#FFFFFF" d="M299.652,131.869c-0.321-0.226-0.593-0.513-1.226-1.371c-0.636-0.86-0.83-1.204-0.954-1.578
			c-0.325-1.005-0.002-1.886,0.874-2.53c0.883-0.652,1.82-0.702,2.686-0.095c0.318,0.225,0.59,0.513,1.225,1.373
			c0.636,0.858,0.829,1.201,0.951,1.575c0.327,1.005,0.004,1.885-0.878,2.537C301.453,132.427,300.516,132.477,299.652,131.869z
			 M302.397,129.545c-0.081-0.236-0.275-0.615-0.831-1.367c-0.556-0.753-0.858-1.052-1.063-1.197
			c-0.529-0.382-1.102-0.386-1.685,0.047c-0.576,0.425-0.74,0.974-0.534,1.59c0.083,0.239,0.277,0.616,0.832,1.368
			c0.556,0.753,0.858,1.053,1.063,1.199c0.528,0.38,1.101,0.382,1.678-0.042C302.441,130.712,302.605,130.163,302.397,129.545z"/>
		<path fill="#FFFFFF" d="M301.624,124.244c-0.032-0.047-0.022-0.099,0.024-0.132l0.502-0.349c0.062-0.044,0.113-0.056,0.188-0.015
			l5.196,2.33l0.028-0.022l-2.773-4.004c-0.032-0.048-0.022-0.102,0.024-0.133l0.494-0.344c0.049-0.034,0.101-0.022,0.133,0.024
			l3.593,5.185c0.033,0.047,0.021,0.101-0.025,0.132l-0.502,0.349c-0.057,0.038-0.112,0.056-0.19,0.016l-5.19-2.311l-0.021,0.018
			l2.764,3.991c0.032,0.045,0.021,0.099-0.025,0.13l-0.493,0.344c-0.047,0.032-0.101,0.022-0.135-0.024L301.624,124.244z"/>
		<path fill="#FFFFFF" d="M307.56,122.028l-0.838-1.263c-0.032-0.048-0.022-0.102,0.026-0.131l0.485-0.322
			c0.045-0.032,0.099-0.022,0.133,0.026l0.437,0.66c0.052,0.078,0.064,0.115,0.062,0.197l-0.112,0.727
			c-0.006,0.062-0.03,0.113-0.07,0.139C307.645,122.088,307.592,122.077,307.56,122.028z"/>
		<path fill="#FFFFFF" d="M313.576,123.926c-0.047,0.029-0.103,0.018-0.131-0.03l-2.979-4.678c-0.021-0.031-0.045-0.038-0.078-0.018
			l-1.498,0.954c-0.048,0.03-0.1,0.017-0.131-0.029l-0.325-0.508c-0.029-0.049-0.018-0.102,0.032-0.132l3.809-2.425
			c0.048-0.03,0.101-0.017,0.131,0.03l0.324,0.506c0.03,0.049,0.017,0.101-0.032,0.132l-1.497,0.952
			c-0.033,0.022-0.037,0.049-0.017,0.081l2.976,4.677c0.034,0.049,0.022,0.103-0.028,0.132L313.576,123.926z"/>
		<path fill="#FFFFFF" d="M289.858,150.963l-2.779-3.062c-0.037-0.043-0.035-0.097,0.009-0.135l0.487-0.442
			c0.043-0.038,0.095-0.036,0.135,0.007l2.771,3.055c0.706,0.779,1.496,0.783,2.14,0.199c0.637-0.577,0.709-1.365,0.004-2.143
			l-2.771-3.055c-0.038-0.045-0.036-0.098,0.007-0.137l0.485-0.442c0.044-0.037,0.096-0.036,0.135,0.008l2.777,3.062
			c1.027,1.133,0.949,2.339-0.105,3.294C292.09,152.133,290.884,152.094,289.858,150.963z"/>
		<path fill="#FFFFFF" d="M291.749,143.691c-0.038-0.043-0.033-0.097,0.01-0.135l0.464-0.396c0.059-0.05,0.106-0.066,0.185-0.033
			l5.401,1.793l0.029-0.024l-3.165-3.703c-0.036-0.044-0.032-0.098,0.013-0.134l0.455-0.392c0.045-0.037,0.099-0.033,0.135,0.011
			l4.093,4.792c0.037,0.043,0.034,0.097-0.011,0.135l-0.462,0.396c-0.05,0.044-0.108,0.066-0.188,0.033l-5.394-1.772l-0.02,0.019
			l3.15,3.688c0.037,0.044,0.032,0.098-0.013,0.134l-0.458,0.392c-0.043,0.037-0.097,0.033-0.135-0.011L291.749,143.691z"/>
		<path fill="#FFFFFF" d="M296.622,139.556c-0.036-0.042-0.031-0.096,0.014-0.133l1.703-1.374c0.854-0.689,1.713-0.78,2.519-0.254
			c0.312,0.203,0.577,0.442,1.302,1.342c0.727,0.9,0.905,1.211,1.037,1.559c0.347,0.898,0.074,1.718-0.781,2.409l-1.7,1.372
			c-0.047,0.035-0.1,0.03-0.135-0.014L296.622,139.556z M300.847,143.35l0.93-0.749c0.608-0.493,0.825-0.998,0.596-1.62
			c-0.085-0.24-0.245-0.516-0.881-1.303c-0.637-0.789-0.87-1.003-1.087-1.135c-0.561-0.36-1.101-0.254-1.709,0.238l-0.931,0.75
			c-0.027,0.022-0.032,0.05-0.011,0.079l3.014,3.731C300.79,143.371,300.818,143.374,300.847,143.35z"/>
		<path fill="#FFFFFF" d="M301.356,135.787c-0.037-0.045-0.028-0.099,0.017-0.133l3.107-2.362c0.048-0.036,0.101-0.028,0.136,0.018
			l0.363,0.479c0.033,0.045,0.025,0.099-0.02,0.134l-2.463,1.871c-0.027,0.023-0.032,0.051-0.008,0.081l1.154,1.52
			c0.024,0.03,0.05,0.033,0.08,0.01l2.089-1.587c0.046-0.037,0.099-0.029,0.134,0.016l0.365,0.479c0.034,0.046,0.026,0.1-0.02,0.134
			l-2.089,1.588c-0.031,0.023-0.034,0.051-0.009,0.081l1.192,1.572c0.025,0.031,0.053,0.033,0.081,0.011l2.462-1.871
			c0.044-0.035,0.1-0.027,0.134,0.019l0.363,0.479c0.035,0.045,0.027,0.099-0.017,0.135l-3.107,2.36
			c-0.046,0.036-0.099,0.029-0.134-0.018L301.356,135.787z"/>
		<path fill="#FFFFFF" d="M312.55,135.45c-0.053,0.038-0.094,0.031-0.156-0.007l-2.604-1.395l-1.162,0.835
			c-0.032,0.022-0.037,0.05-0.015,0.081l1.517,2.108c0.036,0.047,0.026,0.102-0.021,0.134l-0.533,0.386
			c-0.048,0.033-0.102,0.025-0.134-0.022l-3.684-5.116c-0.032-0.047-0.024-0.102,0.021-0.133l1.906-1.373
			c0.985-0.709,2.089-0.584,2.745,0.331c0.514,0.713,0.485,1.521-0.005,2.182l2.727,1.414c0.062,0.025,0.071,0.09,0.019,0.128
			L312.55,135.45z M309.743,131.775c-0.397-0.55-0.996-0.614-1.608-0.173l-1.23,0.888c-0.031,0.022-0.036,0.048-0.015,0.08
			l1.193,1.658c0.025,0.031,0.05,0.036,0.08,0.014l1.234-0.888C310.009,132.914,310.139,132.326,309.743,131.775z"/>
		<path fill="#FFFFFF" d="M313.599,133.849c-0.056-0.009-0.096-0.052-0.091-0.113l0.069-0.648c0.007-0.06,0.047-0.086,0.108-0.082
			c0.534,0.042,1.26-0.046,1.878-0.465c0.744-0.502,0.937-1.176,0.565-1.722c-0.311-0.459-0.78-0.59-1.719-0.117l-0.296,0.143
			c-1.142,0.565-2.017,0.431-2.59-0.417c-0.649-0.958-0.378-2.04,0.688-2.765c0.636-0.43,1.383-0.635,1.979-0.61
			c0.062,0.005,0.093,0.038,0.09,0.1l0.025,0.617c-0.005,0.061-0.045,0.089-0.099,0.092c-0.619,0.025-1.114,0.164-1.574,0.476
			c-0.656,0.443-0.778,1.047-0.43,1.562c0.306,0.451,0.809,0.549,1.717,0.097l0.287-0.137c1.148-0.57,2.005-0.447,2.603,0.433
			c0.637,0.942,0.433,2.073-0.865,2.951C315.185,133.756,314.241,133.945,313.599,133.849z"/>
		<path fill="#FFFFFF" d="M320.028,130.417c-0.049,0.031-0.102,0.02-0.133-0.028l-2.994-4.678c-0.021-0.031-0.047-0.037-0.077-0.016
			l-1.498,0.958c-0.05,0.031-0.103,0.021-0.134-0.029l-0.326-0.506c-0.03-0.05-0.018-0.103,0.029-0.133l3.811-2.438
			c0.046-0.03,0.098-0.019,0.131,0.029l0.323,0.508c0.031,0.048,0.021,0.1-0.028,0.13l-1.497,0.961
			c-0.033,0.02-0.038,0.046-0.017,0.079l2.994,4.676c0.03,0.047,0.018,0.101-0.029,0.131L320.028,130.417z"/>
		<path fill="#FFFFFF" d="M320.633,122.489c-0.014-0.06-0.008-0.105,0.049-0.142l0.527-0.322c0.06-0.036,0.112-0.021,0.158,0.016
			l5.175,4.223c0.048,0.038,0.043,0.087-0.008,0.117l-0.57,0.348c-0.056,0.034-0.103,0.029-0.154-0.018l-1.161-0.948l-2.24,1.366
			l0.312,1.464c0.011,0.072-0.009,0.116-0.056,0.146l-0.571,0.348c-0.05,0.029-0.094,0.012-0.106-0.047L320.633,122.489z
			 M324.007,125.238l-2.405-1.986l-0.018,0.009l0.654,3.057L324.007,125.238z"/>
		<path fill="#FFFFFF" d="M324.273,120.287c-0.027-0.049-0.015-0.102,0.033-0.13l0.534-0.302c0.063-0.038,0.117-0.045,0.188,0.002
			l4.971,2.781l0.032-0.021l-2.41-4.235c-0.03-0.05-0.017-0.104,0.035-0.131l0.523-0.299c0.048-0.027,0.101-0.014,0.128,0.036
			l3.123,5.482c0.028,0.05,0.014,0.102-0.035,0.131l-0.532,0.303c-0.057,0.032-0.116,0.044-0.188-0.003l-4.969-2.759l-0.025,0.015
			l2.403,4.22c0.028,0.049,0.014,0.102-0.038,0.13l-0.523,0.298c-0.047,0.029-0.102,0.015-0.128-0.035L324.273,120.287z"/>
		<path fill="#FFFFFF" d="M329.823,117.16c-0.028-0.052-0.014-0.104,0.038-0.131l1.933-1.025c0.971-0.517,1.831-0.445,2.525,0.227
			c0.266,0.258,0.482,0.544,1.026,1.565c0.541,1.02,0.658,1.359,0.722,1.725c0.17,0.95-0.253,1.704-1.222,2.221l-1.934,1.026
			c-0.051,0.028-0.103,0.013-0.128-0.039L329.823,117.16z M333.256,121.688l1.055-0.562c0.692-0.367,1.001-0.825,0.892-1.48
			c-0.036-0.25-0.143-0.552-0.618-1.445c-0.474-0.896-0.665-1.152-0.853-1.322c-0.482-0.459-1.033-0.459-1.727-0.091l-1.055,0.562
			c-0.035,0.019-0.042,0.044-0.023,0.078l2.251,4.237C333.198,121.697,333.221,121.704,333.256,121.688z"/>
	</g>
	<g>
		<path fill="#FFFFFF" d="M342.108,113.956l-1.557-4.545c-0.022-0.065,0.005-0.124,0.068-0.146l1.346-0.479
			c0.062-0.024,0.12,0.005,0.142,0.069l1.574,4.586c0.301,0.876,0.949,1.204,1.679,0.944c0.72-0.258,1.026-0.925,0.726-1.801
			l-1.575-4.586c-0.023-0.064,0.004-0.124,0.066-0.146l1.345-0.48c0.064-0.022,0.122,0.005,0.143,0.069l1.559,4.545
			c0.628,1.829-0.171,3.232-1.783,3.806C344.22,116.371,342.738,115.783,342.108,113.956z"/>
		<path fill="#FFFFFF" d="M347.591,106.924c-0.02-0.065,0.008-0.122,0.074-0.144l1.282-0.413c0.075-0.025,0.149-0.013,0.215,0.049
			l4.017,3.849l0.055-0.019l-1.452-4.675c-0.02-0.066,0.009-0.123,0.072-0.144l1.208-0.39c0.064-0.02,0.12,0.009,0.141,0.075
			l2.239,7.211c0.021,0.063-0.006,0.122-0.072,0.143l-1.273,0.411c-0.085,0.029-0.149,0.012-0.215-0.05l-4.024-3.833l-0.052,0.018
			l1.448,4.666c0.02,0.065-0.009,0.122-0.074,0.144l-1.206,0.389c-0.066,0.021-0.122-0.01-0.142-0.075L347.591,106.924z"/>
		<path fill="#FFFFFF" d="M354.77,104.629c-0.021-0.067,0.011-0.123,0.077-0.141l2.729-0.792c1.285-0.372,2.337-0.068,3.008,0.953
			c0.244,0.381,0.427,0.784,0.768,2.006c0.342,1.224,0.394,1.663,0.379,2.119c-0.042,1.229-0.781,2.05-2.065,2.423l-2.73,0.791
			c-0.065,0.019-0.119-0.013-0.138-0.078L354.77,104.629z M358.075,110.096l0.831-0.241c0.735-0.212,1.115-0.561,1.13-1.22
			c0.014-0.243-0.023-0.543-0.292-1.513c-0.269-0.972-0.394-1.246-0.531-1.444c-0.352-0.555-0.856-0.645-1.59-0.434l-0.831,0.242
			c-0.043,0.012-0.058,0.04-0.048,0.085l1.25,4.478C358.006,110.094,358.035,110.11,358.075,110.096z"/>
		<path fill="#FFFFFF" d="M361.687,102.659c-0.017-0.064,0.017-0.121,0.081-0.137l4.734-1.232c0.066-0.016,0.12,0.019,0.137,0.083
			l0.298,1.188c0.016,0.067-0.016,0.121-0.082,0.14l-3.18,0.827c-0.044,0.012-0.062,0.038-0.05,0.083l0.373,1.498
			c0.013,0.045,0.04,0.062,0.082,0.05l2.651-0.688c0.066-0.018,0.119,0.016,0.135,0.082l0.298,1.177
			c0.016,0.066-0.017,0.122-0.083,0.138l-2.65,0.688c-0.044,0.013-0.06,0.041-0.048,0.085l0.393,1.564
			c0.009,0.045,0.037,0.062,0.08,0.052l3.183-0.828c0.066-0.017,0.119,0.016,0.136,0.083l0.295,1.188
			c0.016,0.066-0.012,0.121-0.078,0.138l-4.736,1.23c-0.066,0.018-0.121-0.016-0.138-0.082L361.687,102.659z"/>
		<path fill="#FFFFFF" d="M373.751,107.572c-0.099,0.023-0.139-0.003-0.19-0.074l-1.902-2.486l-0.993,0.232
			c-0.046,0.009-0.064,0.036-0.053,0.081l0.607,2.715c0.013,0.067-0.02,0.123-0.085,0.138l-1.391,0.322
			c-0.066,0.015-0.12-0.019-0.134-0.086l-1.646-7.378c-0.016-0.067,0.019-0.121,0.083-0.137l2.965-0.688
			c1.521-0.351,2.746,0.387,3.052,1.773c0.218,0.973-0.111,1.861-0.852,2.419l2.136,2.658c0.048,0.06,0.03,0.134-0.047,0.153
			L373.751,107.572z M372.461,102.357c-0.127-0.57-0.604-0.848-1.217-0.706l-1.313,0.303c-0.044,0.011-0.059,0.038-0.051,0.083
			l0.394,1.755c0.008,0.045,0.035,0.062,0.078,0.053l1.314-0.307C372.277,103.397,372.589,102.938,372.461,102.357z"/>
		<path fill="#FFFFFF" d="M375.886,106.131c-0.051-0.037-0.09-0.111-0.049-0.188l0.648-1.147c0.033-0.065,0.1-0.079,0.162-0.045
			c0.574,0.306,1.319,0.554,2.11,0.394c0.781-0.157,1.148-0.616,1.043-1.156c-0.086-0.449-0.405-0.678-1.318-0.622l-0.408,0.023
			c-1.558,0.09-2.545-0.468-2.809-1.816c-0.271-1.406,0.581-2.547,2.198-2.872c0.989-0.2,1.971-0.082,2.694,0.287
			c0.076,0.031,0.096,0.074,0.055,0.164l-0.473,1.158c-0.031,0.064-0.086,0.086-0.146,0.064c-0.646-0.266-1.235-0.359-1.853-0.235
			c-0.659,0.133-0.932,0.549-0.839,1.033c0.085,0.439,0.447,0.658,1.33,0.609l0.406-0.022c1.579-0.098,2.535,0.459,2.802,1.841
			c0.269,1.381-0.535,2.606-2.471,2.995C377.805,106.833,376.581,106.587,375.886,106.131z"/>
		<path fill="#FFFFFF" d="M384.483,105.428c-0.068,0.012-0.122-0.025-0.131-0.093l-1.006-6.017
			c-0.008-0.047-0.035-0.064-0.079-0.057l-1.9,0.329c-0.066,0.012-0.119-0.025-0.129-0.093l-0.21-1.255
			c-0.011-0.066,0.025-0.119,0.091-0.131l5.558-0.965c0.066-0.011,0.118,0.027,0.129,0.095l0.209,1.253
			c0.011,0.067-0.025,0.12-0.092,0.133l-1.9,0.329c-0.044,0.008-0.063,0.034-0.054,0.079l1.006,6.016
			c0.012,0.067-0.025,0.121-0.091,0.134L384.483,105.428z"/>
		<path fill="#FFFFFF" d="M389.148,96.877c0.01-0.069,0.049-0.121,0.128-0.134l1.399-0.206c0.079-0.012,0.129,0.026,0.16,0.092
			l3.624,7.114c0.033,0.066,0.016,0.114-0.062,0.127l-1.444,0.212c-0.078,0.012-0.128-0.016-0.161-0.092l-0.625-1.288l-2.644,0.392
			l-0.23,1.412c-0.013,0.082-0.049,0.123-0.128,0.134l-1.455,0.216c-0.077,0.012-0.106-0.03-0.095-0.104L389.148,96.877z
			 M391.52,101.35l-1.239-2.576l-0.035,0.006l-0.47,2.828L391.52,101.35z"/>
		<path fill="#FFFFFF" d="M394.46,96.125c-0.008-0.068,0.031-0.12,0.098-0.127l1.337-0.156c0.077-0.01,0.147,0.016,0.203,0.09
			l3.226,4.559l0.056-0.009l-0.553-4.871c-0.006-0.066,0.032-0.118,0.1-0.124l1.258-0.15c0.066-0.006,0.116,0.033,0.123,0.102
			l0.856,7.511c0.006,0.068-0.032,0.119-0.098,0.127l-1.327,0.156c-0.09,0.011-0.15-0.018-0.204-0.091l-3.235-4.544l-0.056,0.006
			l0.552,4.859c0.007,0.068-0.033,0.12-0.101,0.127l-1.255,0.149c-0.07,0.008-0.118-0.034-0.125-0.1L394.46,96.125z"/>
		<path fill="#FFFFFF" d="M401.911,95.27c-0.007-0.069,0.035-0.117,0.102-0.123l2.83-0.246c1.333-0.116,2.31,0.389,2.777,1.522
			c0.168,0.422,0.273,0.852,0.379,2.119c0.107,1.271,0.076,1.711-0.022,2.155c-0.27,1.198-1.149,1.863-2.481,1.977l-2.83,0.244
			c-0.067,0.007-0.115-0.036-0.121-0.104L401.911,95.27z M404.138,101.282l0.863-0.075c0.762-0.066,1.2-0.333,1.338-0.978
			c0.059-0.236,0.08-0.537-0.005-1.542c-0.084-1.007-0.156-1.3-0.253-1.521c-0.243-0.611-0.723-0.8-1.481-0.735l-0.862,0.074
			c-0.045,0.005-0.065,0.03-0.062,0.074l0.389,4.641C404.07,101.267,404.094,101.286,404.138,101.282z"/>
	</g>
	<g>
		<path fill="#FFFFFF" d="M416.185,95.64c0.004-0.058,0.042-0.094,0.097-0.089l2.057,0.149c1.035,0.075,1.688,0.592,1.907,1.525
			c0.085,0.361,0.116,0.718,0.042,1.871c-0.076,1.152-0.151,1.501-0.283,1.846c-0.336,0.895-1.05,1.312-2.084,1.238l-2.058-0.151
			c-0.055-0.003-0.087-0.045-0.084-0.102L416.185,95.64z M416.678,101.294l1.123,0.082c0.737,0.054,1.212-0.171,1.451-0.785
			c0.096-0.232,0.16-0.543,0.226-1.553c0.065-1.011,0.041-1.327-0.024-1.572c-0.157-0.644-0.599-0.934-1.336-0.987l-1.123-0.082
			c-0.036-0.002-0.055,0.016-0.058,0.054l-0.309,4.783C416.625,101.271,416.642,101.292,416.678,101.294z"/>
		<path fill="#FFFFFF" d="M421.403,101.039c-0.082-0.383-0.092-0.777,0.006-1.843c0.099-1.064,0.178-1.45,0.329-1.809
			c0.406-0.966,1.188-1.403,2.21-1.297c1.032,0.105,1.72,0.695,1.941,1.726c0.082,0.384,0.092,0.778-0.005,1.843
			c-0.1,1.064-0.179,1.449-0.33,1.808c-0.405,0.967-1.188,1.405-2.22,1.298C422.313,102.658,421.626,102.069,421.403,101.039z
			 M424.796,101.149c0.095-0.23,0.194-0.643,0.281-1.573c0.085-0.932,0.061-1.357,0.011-1.603c-0.131-0.637-0.529-1.024-1.211-1.094
			c-0.673-0.07-1.136,0.228-1.38,0.826c-0.094,0.23-0.194,0.643-0.28,1.573c-0.086,0.933-0.062,1.357-0.012,1.603
			c0.131,0.638,0.531,1.024,1.203,1.093C424.091,102.046,424.552,101.748,424.796,101.149z"/>
		<path fill="#FFFFFF" d="M427.585,96.693c0.007-0.058,0.047-0.09,0.102-0.083l0.571,0.078c0.071,0.009,0.115,0.035,0.14,0.114
			l2.17,5.209l0.035,0.005l0.585-4.834c0.006-0.058,0.046-0.09,0.102-0.082l0.562,0.075c0.055,0.008,0.086,0.052,0.078,0.108
			l-0.757,6.255c-0.007,0.057-0.048,0.09-0.101,0.082l-0.572-0.077c-0.062-0.01-0.115-0.035-0.14-0.115l-2.181-5.19l-0.026-0.003
			l-0.583,4.814c-0.008,0.056-0.047,0.09-0.102,0.083l-0.562-0.078c-0.055-0.008-0.086-0.05-0.078-0.106L427.585,96.693z"/>
		<path fill="#FFFFFF" d="M433.18,99.019l0.209-1.501c0.01-0.057,0.05-0.09,0.104-0.081l0.542,0.086
			c0.055,0.009,0.084,0.051,0.077,0.108L434,98.415c-0.013,0.095-0.027,0.131-0.08,0.19l-0.539,0.465
			c-0.042,0.042-0.091,0.063-0.136,0.057C433.201,99.119,433.17,99.076,433.18,99.019z"/>
		<path fill="#FFFFFF" d="M436.212,104.463c-0.054-0.009-0.083-0.053-0.073-0.108l0.869-5.473c0.008-0.037-0.008-0.06-0.045-0.066
			l-1.65-0.294c-0.055-0.011-0.084-0.054-0.075-0.111l0.095-0.593c0.01-0.057,0.051-0.089,0.104-0.079l4.202,0.752
			c0.052,0.01,0.082,0.054,0.072,0.109l-0.093,0.595c-0.011,0.055-0.051,0.087-0.104,0.078l-1.652-0.296
			c-0.037-0.006-0.057,0.01-0.062,0.047l-0.869,5.473c-0.011,0.056-0.051,0.088-0.105,0.077L436.212,104.463z"/>
		<path fill="#FFFFFF" d="M442.818,99.22c0.01-0.055,0.054-0.085,0.105-0.074l2.127,0.468c1.207,0.265,1.68,1.052,1.481,2.071
			c-0.146,0.738-0.567,1.113-1.073,1.208l-0.006,0.018c0.383,0.211,0.789,0.817,0.623,1.669c-0.23,1.188-1.061,1.658-2.313,1.384
			l-2.081-0.457c-0.053-0.012-0.082-0.058-0.07-0.113L442.818,99.22z M442.58,104.912l1.402,0.31
			c0.715,0.156,1.182-0.17,1.307-0.807c0.123-0.627-0.184-1.132-0.897-1.289l-1.402-0.308c-0.036-0.008-0.058,0.007-0.064,0.044
			l-0.388,1.982C442.529,104.882,442.544,104.904,442.58,104.912z M444.495,102.358c0.662,0.146,1.128-0.172,1.244-0.76
			c0.117-0.608-0.194-1.087-0.854-1.232l-1.36-0.299c-0.034-0.008-0.057,0.008-0.062,0.045l-0.368,1.88
			c-0.008,0.037,0.007,0.06,0.042,0.069L444.495,102.358z"/>
		<path fill="#FFFFFF" d="M448.251,100.442c0.013-0.056,0.056-0.084,0.108-0.07l3.582,0.893c0.053,0.014,0.078,0.06,0.066,0.115
			l-0.129,0.585c-0.014,0.056-0.057,0.084-0.108,0.071l-2.837-0.708c-0.037-0.008-0.059,0.005-0.065,0.044l-0.413,1.855
			c-0.009,0.037,0.006,0.062,0.04,0.069l2.409,0.601c0.052,0.014,0.078,0.06,0.067,0.115l-0.13,0.584
			c-0.013,0.057-0.056,0.085-0.108,0.072l-2.409-0.602c-0.034-0.009-0.056,0.006-0.066,0.042l-0.424,1.923
			c-0.01,0.037,0.004,0.061,0.041,0.069l2.836,0.708c0.053,0.014,0.078,0.059,0.066,0.114l-0.13,0.585
			c-0.011,0.056-0.056,0.085-0.108,0.071l-3.581-0.894c-0.053-0.014-0.079-0.059-0.067-0.115L448.251,100.442z"/>
		<path fill="#FFFFFF" d="M453.305,101.712c0.014-0.055,0.057-0.082,0.109-0.068l0.602,0.168c0.052,0.014,0.078,0.061,0.064,0.116
			l-1.328,5.371c-0.011,0.037,0.002,0.06,0.038,0.07l2.824,0.786c0.052,0.014,0.078,0.062,0.064,0.116l-0.144,0.582
			c-0.014,0.056-0.059,0.083-0.111,0.068l-3.566-0.991c-0.052-0.015-0.078-0.062-0.064-0.117L453.305,101.712z"/>
		<path fill="#FFFFFF" d="M458.064,103.072c0.016-0.055,0.059-0.081,0.112-0.065l0.597,0.179c0.053,0.017,0.076,0.062,0.062,0.118
			l-1.615,6.062c-0.016,0.054-0.059,0.081-0.109,0.065l-0.6-0.179c-0.051-0.015-0.077-0.062-0.061-0.118L458.064,103.072z"/>
		<path fill="#FFFFFF" d="M460.39,103.766c0.015-0.055,0.06-0.08,0.112-0.063l3.525,1.133c0.053,0.017,0.076,0.065,0.06,0.119
			l-0.164,0.576c-0.015,0.055-0.061,0.081-0.113,0.064l-2.792-0.898c-0.035-0.012-0.058,0.002-0.068,0.038l-0.521,1.828
			c-0.013,0.036,0.001,0.061,0.036,0.071l2.369,0.762c0.052,0.017,0.075,0.065,0.061,0.119l-0.164,0.576
			c-0.017,0.055-0.062,0.08-0.113,0.064l-2.37-0.763c-0.035-0.012-0.058,0.002-0.067,0.038l-0.541,1.893
			c-0.012,0.035,0.002,0.061,0.035,0.071l2.794,0.897c0.051,0.017,0.075,0.064,0.06,0.119l-0.164,0.576
			c-0.018,0.054-0.062,0.079-0.113,0.062l-3.526-1.133c-0.051-0.017-0.075-0.064-0.06-0.12L460.39,103.766z"/>
		<path fill="#FFFFFF" d="M464.898,111.959c-0.053-0.019-0.076-0.066-0.074-0.127l-0.023-6.625
			c-0.004-0.082,0.043-0.106,0.094-0.088l0.582,0.203c0.066,0.023,0.094,0.063,0.09,0.133l0.006,5.28l0.018,0.007l2.92-4.256
			c0.036-0.059,0.078-0.074,0.139-0.053l0.59,0.206c0.052,0.019,0.074,0.066,0.025,0.131l-3.73,5.31
			c-0.033,0.048-0.08,0.073-0.131,0.055L464.898,111.959z"/>
		<path fill="#FFFFFF" d="M470.261,107.126c0.018-0.054,0.064-0.076,0.114-0.058l3.467,1.322c0.052,0.02,0.073,0.067,0.055,0.121
			l-0.192,0.566c-0.019,0.054-0.063,0.077-0.114,0.059l-2.746-1.048c-0.035-0.013-0.059-0.001-0.07,0.034l-0.608,1.797
			c-0.012,0.037-0.002,0.061,0.031,0.074l2.331,0.889c0.051,0.019,0.072,0.068,0.055,0.122l-0.192,0.566
			c-0.019,0.054-0.063,0.077-0.115,0.059l-2.33-0.89c-0.035-0.014-0.058-0.002-0.07,0.034l-0.631,1.86
			c-0.013,0.036-0.001,0.06,0.033,0.073l2.747,1.048c0.051,0.019,0.071,0.068,0.054,0.122l-0.192,0.566
			c-0.018,0.054-0.065,0.076-0.115,0.057l-3.467-1.321c-0.051-0.021-0.072-0.069-0.055-0.123L470.261,107.126z"/>
	</g>
	<g>
		<path fill="#FFFFFF" d="M493.417,115.056c0.036-0.058,0.099-0.071,0.158-0.036l2.571,1.612c1.438,0.9,1.664,2.029,1.006,3.077
			c-0.45,0.719-1.062,0.959-1.647,0.927l-0.015,0.02c0.334,0.437,0.439,1.262-0.051,2.048c-0.816,1.301-2.07,1.381-3.498,0.487
			l-2.504-1.569c-0.059-0.038-0.072-0.102-0.037-0.161L493.417,115.056z M491.549,121.335l1.088,0.682
			c0.582,0.366,1.088,0.251,1.41-0.265c0.316-0.505,0.207-1.021-0.376-1.386l-1.088-0.68c-0.037-0.025-0.069-0.018-0.093,0.02
			l-0.963,1.535C491.504,121.281,491.51,121.312,491.549,121.335z M494.279,119.221c0.545,0.34,1.049,0.25,1.354-0.235
			c0.302-0.486,0.158-0.967-0.386-1.309l-1.01-0.633c-0.041-0.023-0.07-0.018-0.096,0.021l-0.893,1.427
			c-0.025,0.039-0.018,0.07,0.021,0.094L494.279,119.221z"/>
		<path fill="#FFFFFF" d="M499.492,118.908c0.037-0.056,0.101-0.071,0.159-0.032l4.144,2.791c0.056,0.038,0.067,0.103,0.03,0.159
			l-0.684,1.017c-0.04,0.058-0.105,0.071-0.161,0.03l-2.784-1.874c-0.037-0.026-0.068-0.02-0.096,0.019l-0.862,1.282
			c-0.025,0.038-0.02,0.07,0.019,0.095l2.318,1.562c0.056,0.04,0.069,0.102,0.03,0.159l-0.678,1.007
			c-0.039,0.057-0.104,0.068-0.16,0.031l-2.318-1.562c-0.036-0.025-0.07-0.021-0.095,0.018l-0.902,1.341
			c-0.027,0.037-0.021,0.07,0.017,0.096l2.785,1.875c0.057,0.038,0.07,0.104,0.032,0.159l-0.685,1.017
			c-0.04,0.058-0.103,0.07-0.159,0.031l-4.146-2.791c-0.054-0.039-0.068-0.103-0.03-0.16L499.492,118.908z"/>
		<path fill="#FFFFFF" d="M504.973,122.602c0.037-0.055,0.104-0.066,0.159-0.026l1.188,0.839c0.058,0.041,0.068,0.104,0.029,0.16
			l-3.525,4.991c-0.026,0.038-0.022,0.07,0.017,0.096l2.809,1.983c0.057,0.041,0.067,0.104,0.028,0.161l-0.734,1.04
			c-0.041,0.056-0.103,0.067-0.162,0.026l-4.146-2.93c-0.055-0.039-0.065-0.104-0.028-0.16L504.973,122.602z"/>
		<path fill="#FFFFFF" d="M510.177,126.328c0.04-0.056,0.105-0.066,0.159-0.024l1.171,0.859c0.056,0.041,0.065,0.104,0.025,0.159
			l-4.474,6.094c-0.038,0.055-0.103,0.066-0.159,0.026l-1.173-0.861c-0.055-0.042-0.064-0.105-0.024-0.16L510.177,126.328z"/>
		<path fill="#FFFFFF" d="M512.865,128.291c0.039-0.055,0.104-0.063,0.16-0.021l3.968,3.039c0.055,0.043,0.064,0.105,0.022,0.16
			l-0.744,0.974c-0.043,0.056-0.11,0.064-0.163,0.021l-2.667-2.041c-0.035-0.028-0.069-0.026-0.099,0.013l-0.939,1.228
			c-0.029,0.037-0.024,0.069,0.012,0.098l2.223,1.7c0.055,0.042,0.063,0.106,0.021,0.161l-0.739,0.965
			c-0.041,0.054-0.105,0.062-0.16,0.022l-2.223-1.702c-0.035-0.026-0.069-0.023-0.097,0.012l-0.98,1.284
			c-0.029,0.037-0.025,0.07,0.011,0.097l2.668,2.044c0.055,0.04,0.064,0.105,0.021,0.159l-0.746,0.976
			c-0.042,0.055-0.106,0.062-0.16,0.02l-3.972-3.039c-0.054-0.043-0.061-0.106-0.021-0.162L512.865,128.291z"/>
		<path fill="#FFFFFF" d="M514.817,139.55c-0.061-0.051-0.07-0.117-0.045-0.182l2.819-7.427c0.033-0.078,0.096-0.083,0.158-0.035
			l1.159,0.938c0.062,0.05,0.075,0.105,0.044,0.182l-2,4.951l0.03,0.022l4.385-3.024c0.067-0.048,0.124-0.046,0.187,0.005
			l1.148,0.928c0.056,0.044,0.062,0.109-0.008,0.157l-6.665,4.317c-0.062,0.038-0.126,0.046-0.18,0.002L514.817,139.55z"/>
		<path fill="#FFFFFF" d="M523.488,136.712c0.042-0.055,0.109-0.06,0.158-0.015l3.805,3.248c0.052,0.045,0.056,0.111,0.012,0.163
			l-0.796,0.933c-0.047,0.051-0.109,0.056-0.163,0.012l-2.556-2.183c-0.033-0.031-0.067-0.025-0.097,0.008l-1.004,1.176
			c-0.029,0.036-0.029,0.068,0.004,0.097l2.13,1.82c0.053,0.042,0.056,0.108,0.015,0.16l-0.792,0.924
			c-0.044,0.053-0.109,0.057-0.161,0.013l-2.129-1.817c-0.035-0.03-0.066-0.029-0.095,0.008l-1.05,1.229
			c-0.031,0.036-0.028,0.068,0.006,0.097l2.554,2.182c0.053,0.045,0.057,0.11,0.015,0.162l-0.796,0.933
			c-0.047,0.053-0.112,0.058-0.165,0.013l-3.801-3.248c-0.052-0.045-0.059-0.11-0.012-0.162L523.488,136.712z"/>
	</g>
	<g>
		<path fill="#FFFFFF" d="M547.172,162.834c0.045-0.036,0.1-0.03,0.135,0.014l1.377,1.695c0.695,0.853,0.789,1.711,0.264,2.517
			c-0.201,0.312-0.441,0.58-1.338,1.308c-0.895,0.729-1.205,0.906-1.551,1.04c-0.898,0.348-1.719,0.08-2.41-0.771l-1.377-1.696
			c-0.035-0.045-0.031-0.099,0.014-0.135L547.172,162.834z M543.396,167.069l0.752,0.926c0.494,0.608,1,0.822,1.623,0.589
			c0.238-0.083,0.514-0.245,1.297-0.883c0.787-0.638,1.002-0.874,1.133-1.091c0.355-0.56,0.25-1.101-0.244-1.708l-0.754-0.925
			c-0.023-0.03-0.049-0.033-0.08-0.009l-3.717,3.021C543.377,167.013,543.371,167.04,543.396,167.069z"/>
		<path fill="#FFFFFF" d="M547.008,170.563c0.221-0.324,0.504-0.601,1.355-1.251c0.848-0.649,1.188-0.851,1.561-0.979
			c1-0.344,1.885-0.035,2.547,0.829c0.668,0.873,0.734,1.809,0.143,2.685c-0.223,0.324-0.504,0.601-1.355,1.251
			c-0.85,0.65-1.188,0.851-1.561,0.979c-1,0.345-1.885,0.035-2.553-0.837C546.482,172.375,546.416,171.438,547.008,170.563z
			 M549.383,173.271c0.236-0.084,0.611-0.286,1.354-0.855c0.744-0.568,1.035-0.878,1.182-1.084c0.369-0.537,0.363-1.109-0.076-1.686
			c-0.436-0.569-0.988-0.726-1.604-0.507c-0.236,0.085-0.609,0.288-1.354,0.856c-0.744,0.569-1.037,0.877-1.18,1.083
			c-0.371,0.537-0.367,1.11,0.068,1.68C548.215,173.335,548.768,173.49,549.383,173.271z"/>
		<path fill="#FFFFFF" d="M554.67,172.4c0.047-0.034,0.102-0.025,0.133,0.021l0.357,0.497c0.045,0.061,0.059,0.111,0.018,0.187
			l-2.238,5.235l0.023,0.033l3.957-2.848c0.045-0.033,0.1-0.024,0.133,0.022l0.35,0.487c0.035,0.048,0.027,0.102-0.02,0.135
			l-5.121,3.684c-0.047,0.033-0.102,0.025-0.133-0.022l-0.357-0.496c-0.039-0.054-0.057-0.112-0.018-0.188l2.215-5.232l-0.016-0.022
			l-3.941,2.835c-0.045,0.033-0.1,0.024-0.133-0.021l-0.354-0.49c-0.033-0.046-0.021-0.099,0.023-0.132L554.67,172.4z"/>
		<path fill="#FFFFFF" d="M556.99,178.292l1.25-0.861c0.049-0.033,0.1-0.022,0.133,0.024l0.33,0.479
			c0.031,0.047,0.023,0.101-0.023,0.133l-0.654,0.45c-0.078,0.054-0.115,0.067-0.197,0.066l-0.73-0.101
			c-0.061-0.004-0.109-0.027-0.139-0.066C556.932,178.377,556.941,178.324,556.99,178.292z"/>
		<path fill="#FFFFFF" d="M555.219,184.369c-0.033-0.047-0.021-0.101,0.025-0.132l4.627-3.063c0.035-0.022,0.039-0.049,0.02-0.08
			l-0.982-1.481c-0.031-0.047-0.023-0.101,0.027-0.133l0.5-0.332c0.047-0.031,0.102-0.021,0.133,0.027l2.496,3.767
			c0.031,0.048,0.02,0.101-0.029,0.132l-0.502,0.333c-0.047,0.031-0.1,0.02-0.133-0.027l-0.98-1.481
			c-0.02-0.031-0.045-0.037-0.078-0.016l-4.625,3.063c-0.049,0.033-0.102,0.021-0.133-0.025L555.219,184.369z"/>
		<path fill="#FFFFFF" d="M564.721,187.367c0.059-0.014,0.107-0.009,0.145,0.048l0.32,0.53c0.037,0.058,0.023,0.11-0.016,0.156
			l-4.223,5.184c-0.037,0.046-0.086,0.042-0.117-0.008l-0.348-0.57c-0.033-0.058-0.029-0.104,0.018-0.156l0.949-1.16l-1.369-2.241
			l-1.467,0.312c-0.07,0.011-0.115-0.007-0.145-0.057l-0.352-0.57c-0.027-0.05-0.012-0.095,0.047-0.108L564.721,187.367z
			 M561.973,190.746l1.986-2.41l-0.01-0.016l-3.059,0.657L561.973,190.746z"/>
		<path fill="#FFFFFF" d="M563.965,192.212c0.936-0.537,1.283-0.682,1.668-0.76c1.049-0.227,1.873,0.192,2.4,1.112
			c0.482,0.838,0.438,1.722-0.098,2.458c-0.031,0.041-0.078,0.057-0.129,0.029l-0.525-0.36c-0.051-0.035-0.057-0.099-0.023-0.14
			c0.311-0.476,0.426-1.005,0.086-1.592c-0.35-0.613-0.861-0.815-1.498-0.693c-0.273,0.059-0.564,0.183-1.453,0.69
			c-0.887,0.509-1.141,0.699-1.33,0.907c-0.426,0.487-0.51,1.03-0.158,1.644c0.336,0.588,0.852,0.755,1.42,0.728
			c0.051-0.008,0.104,0.027,0.107,0.093l0.045,0.634c0,0.057-0.037,0.088-0.088,0.096c-0.908,0.09-1.691-0.318-2.172-1.154
			c-0.527-0.921-0.475-1.844,0.252-2.635C562.729,192.977,563.029,192.749,563.965,192.212z"/>
		<path fill="#FFFFFF" d="M564.512,199.791c-0.027-0.051-0.012-0.102,0.039-0.129l4.873-2.644c0.035-0.019,0.043-0.044,0.025-0.077
			l-0.848-1.561c-0.029-0.051-0.014-0.102,0.039-0.13l0.527-0.286c0.053-0.027,0.102-0.012,0.131,0.038l2.152,3.969
			c0.025,0.05,0.01,0.102-0.039,0.129l-0.529,0.286c-0.051,0.027-0.102,0.013-0.129-0.038l-0.846-1.56
			c-0.02-0.035-0.045-0.042-0.078-0.023l-4.873,2.644c-0.053,0.026-0.104,0.011-0.131-0.038L564.512,199.791z"/>
	</g>
	<path fill="#FFFFFF" d="M589.188,232.283c0.125,0.008,0.221,0.066,0.254,0.203l0.598,2.436c0.033,0.135-0.027,0.232-0.133,0.299
		l-11.682,7.566c-0.111,0.068-0.195,0.049-0.229-0.086l-0.611-2.516c-0.033-0.137,0.002-0.227,0.129-0.301l2.119-1.316l-1.123-4.604
		l-2.484-0.174c-0.143-0.004-0.221-0.066-0.252-0.203l-0.619-2.533c-0.033-0.137,0.035-0.193,0.158-0.184L589.188,232.283z
		 M581.861,237.205l4.24-2.611l-0.014-0.061l-4.967-0.367L581.861,237.205z"/>
	<path fill="#FFFFFF" d="M584.744,241.9c2.045-0.441,2.742-0.512,3.662-0.406c2.312,0.234,3.77,1.691,4.273,4.008
		c0.484,2.24-0.25,4.109-1.939,5.252c-0.084,0.08-0.193,0.061-0.256-0.047l-1.416-1.916c-0.082-0.105-0.064-0.211,0.041-0.295
		c0.777-0.553,1.283-1.316,1.045-2.428c-0.225-1.031-0.914-1.574-1.893-1.668c-0.52-0.051-1-0.008-2.889,0.402
		c-1.889,0.408-2.344,0.57-2.797,0.83c-0.854,0.49-1.254,1.27-1.031,2.301c0.242,1.111,1.02,1.594,1.957,1.779
		c0.127,0.033,0.188,0.121,0.154,0.25l-0.492,2.33c-0.014,0.127-0.102,0.188-0.213,0.148c-2.01-0.338-3.455-1.74-3.941-3.979
		c-0.502-2.314,0.223-4.246,2.23-5.416C582.035,242.568,582.699,242.343,584.744,241.9z"/>
	<path fill="#FFFFFF" d="M581.086,257.587c-0.023-0.119,0.039-0.211,0.16-0.232l10.432-1.967c0.082-0.014,0.111-0.061,0.098-0.137
		l-0.635-3.369c-0.021-0.117,0.043-0.211,0.156-0.232l2.176-0.41c0.117-0.023,0.211,0.043,0.232,0.158l1.854,9.848
		c0.023,0.119-0.039,0.211-0.156,0.234l-2.174,0.408c-0.117,0.023-0.211-0.039-0.232-0.156l-0.635-3.369
		c-0.014-0.08-0.061-0.111-0.139-0.094l-10.436,1.965c-0.119,0.021-0.211-0.043-0.234-0.16L581.086,257.587z"/>
	<rect x="299.762" y="280.238" fill="#E2DFDE" width="333.333" height="32"/>
	<rect x="327.016" y="291.858" fill="none" width="284.289" height="37"/>
	<text transform="matrix(1 0 0 1 332.7168 301.5435)" fill="#857A7A" font-family="'DINNextLTPro-Bold'" font-size="14.2459">ENCOURAGE AWARENESS IN ASSOCIATES</text>
	<polygon fill="#E2DFDE" points="304.76,331.651 270.348,297.238 304.76,262.826 	"/>
	<line fill="none" stroke="#D45A2A" stroke-miterlimit="10" x1="6.741" y1="30" x2="761.204" y2="30"/>
	<g>
		<path fill="#FFFFFF" d="M229.528,265.754l-4.116-0.409c-0.057-0.006-0.09-0.047-0.087-0.104l0.066-0.654
			c0.005-0.058,0.047-0.092,0.105-0.086l4.104,0.407c1.046,0.103,1.635-0.424,1.722-1.287c0.085-0.856-0.391-1.487-1.435-1.592
			l-4.106-0.408c-0.058-0.006-0.091-0.047-0.086-0.104l0.065-0.655c0.005-0.057,0.048-0.092,0.104-0.085l4.115,0.407
			c1.52,0.15,2.271,1.099,2.13,2.515C231.97,265.123,231.049,265.904,229.528,265.754z"/>
		<path fill="#FFFFFF" d="M226.058,259.064c-0.057-0.008-0.09-0.05-0.082-0.106l0.079-0.606c0.01-0.076,0.034-0.121,0.115-0.149
			l5.213-2.291l0.006-0.038l-4.835-0.628c-0.056-0.007-0.089-0.051-0.081-0.107l0.077-0.597c0.007-0.057,0.05-0.09,0.107-0.082
			l6.255,0.813c0.058,0.007,0.091,0.05,0.083,0.105l-0.079,0.607c-0.01,0.066-0.034,0.121-0.116,0.148l-5.195,2.304l-0.004,0.028
			l4.815,0.625c0.056,0.008,0.09,0.051,0.081,0.108l-0.076,0.598c-0.009,0.056-0.051,0.089-0.106,0.081L226.058,259.064z"/>
		<path fill="#FFFFFF" d="M227.185,251.094c-0.055-0.028-0.087-0.062-0.077-0.128l0.098-0.612c0.011-0.065,0.054-0.099,0.114-0.107
			l6.569-1.202c0.061-0.01,0.094,0.024,0.083,0.08l-0.104,0.659c-0.012,0.066-0.045,0.101-0.114,0.107l-1.473,0.269l-0.412,2.59
			l1.315,0.714c0.062,0.038,0.083,0.082,0.075,0.138l-0.106,0.66c-0.009,0.056-0.052,0.078-0.104,0.05L227.185,251.094z
			 M231.464,250.309l-3.073,0.543l-0.003,0.02l2.75,1.482L231.464,250.309z"/>
		<path fill="#FFFFFF" d="M234.974,243.792c-0.011,0.056-0.054,0.077-0.113,0.086l-5.015,0.445l-0.003,0.02l4.492,2.263
			c0.055,0.029,0.084,0.073,0.073,0.131l-0.099,0.515c-0.011,0.057-0.057,0.086-0.113,0.085l-6.482,0.349
			c-0.06,0.008-0.093-0.026-0.079-0.092l0.117-0.619c0.014-0.065,0.049-0.098,0.117-0.094l4.95-0.227l0.005-0.019l-4.48-2.23
			c-0.053-0.029-0.081-0.074-0.072-0.13l0.092-0.479c0.014-0.064,0.057-0.085,0.115-0.094l4.993-0.439l0.003-0.02l-4.52-2.016
			c-0.063-0.031-0.084-0.074-0.07-0.139l0.116-0.61c0.013-0.066,0.054-0.078,0.108-0.056l5.892,2.725
			c0.054,0.02,0.082,0.073,0.071,0.13L234.974,243.792z"/>
		<path fill="#FFFFFF" d="M229.697,237.873c-0.053-0.03-0.082-0.067-0.067-0.132l0.136-0.605c0.016-0.065,0.061-0.095,0.12-0.1
			l6.642-0.778c0.061-0.007,0.091,0.031,0.078,0.087l-0.147,0.652c-0.015,0.064-0.052,0.096-0.12,0.1l-1.489,0.172l-0.58,2.562
			l1.269,0.796c0.058,0.042,0.078,0.086,0.065,0.143l-0.147,0.651c-0.013,0.057-0.057,0.076-0.108,0.045L229.697,237.873z
			 M234.024,237.366l-3.105,0.344l-0.004,0.02l2.649,1.658L234.024,237.366z"/>
		<path fill="#FFFFFF" d="M237.797,231.659c-0.017,0.065-0.051,0.085-0.123,0.097l-2.894,0.596l-0.355,1.388
			c-0.01,0.037,0.004,0.061,0.041,0.069l2.513,0.646c0.057,0.015,0.085,0.06,0.07,0.116l-0.163,0.638
			c-0.015,0.055-0.062,0.084-0.117,0.069l-6.101-1.567c-0.056-0.014-0.083-0.062-0.069-0.117l0.584-2.273
			c0.302-1.175,1.228-1.784,2.317-1.504c0.852,0.219,1.348,0.859,1.393,1.678l2.997-0.659c0.065-0.022,0.114,0.021,0.097,0.085
			L237.797,231.659z M233.29,230.64c-0.658-0.169-1.156,0.166-1.345,0.896l-0.377,1.47c-0.011,0.038,0.003,0.061,0.042,0.07
			l1.978,0.508c0.035,0.01,0.06-0.004,0.069-0.04l0.377-1.471C234.221,231.343,233.945,230.808,233.29,230.64z"/>
		<path fill="#FFFFFF" d="M232.176,227.91c-0.056-0.016-0.082-0.063-0.064-0.119l1.072-3.755c0.015-0.056,0.062-0.081,0.118-0.066
			l0.577,0.166c0.057,0.017,0.082,0.062,0.066,0.118l-0.85,2.975c-0.011,0.037,0.001,0.061,0.039,0.071l1.835,0.524
			c0.039,0.011,0.062-0.003,0.073-0.039l0.722-2.525c0.014-0.056,0.062-0.082,0.117-0.066l0.578,0.167
			c0.055,0.015,0.082,0.062,0.065,0.116l-0.722,2.526c-0.01,0.038,0.004,0.06,0.04,0.07l1.9,0.543
			c0.038,0.011,0.061-0.003,0.071-0.039l0.85-2.976c0.017-0.055,0.062-0.081,0.118-0.065l0.579,0.165
			c0.054,0.016,0.08,0.062,0.065,0.119l-1.072,3.756c-0.018,0.054-0.063,0.08-0.118,0.064L232.176,227.91z"/>
	</g>
</g>
<g id="_x3C_Layer_x3E_">
</g>
</svg>
