<?xml version="1.0" encoding="utf-8"?>
<!-- Generator: Adobe Illustrator 16.0.0, SVG Export Plug-In . SVG Version: 6.00 Build 0)  -->
<!DOCTYPE svg PUBLIC "-//W3C//DTD SVG 1.1//EN" "http://www.w3.org/Graphics/SVG/1.1/DTD/svg11.dtd" [
	<!ENTITY ns_extend "http://ns.adobe.com/Extensibility/1.0/">
	<!ENTITY ns_ai "http://ns.adobe.com/AdobeIllustrator/10.0/">
	<!ENTITY ns_graphs "http://ns.adobe.com/Graphs/1.0/">
	<!ENTITY ns_vars "http://ns.adobe.com/Variables/1.0/">
	<!ENTITY ns_imrep "http://ns.adobe.com/ImageReplacement/1.0/">
	<!ENTITY ns_sfw "http://ns.adobe.com/SaveForWeb/1.0/">
	<!ENTITY ns_custom "http://ns.adobe.com/GenericCustomNamespace/1.0/">
	<!ENTITY ns_adobe_xpath "http://ns.adobe.com/XPath/1.0/">
]>
<svg version="1.1" id="Layer_1" xmlns:x="&ns_extend;" xmlns:i="&ns_ai;" xmlns:graph="&ns_graphs;"
	 xmlns="http://www.w3.org/2000/svg" xmlns:xlink="http://www.w3.org/1999/xlink" x="0px" y="0px" width="1297px" height="1296px"
	 viewBox="0 0 1297 1296" style="enable-background:new 0 0 1297 1296;" xml:space="preserve">
<metadata>
	<sfw  xmlns="&ns_sfw;">
		<slices></slices>
		<sliceSourceBounds  height="1250.72" width="1084.486" x="116.195" y="22.64" bottomLeftOrigin="true"></sliceSourceBounds>
	</sfw>
</metadata>
<g>
	<polygon style="fill:#5F6C72;" points="130.6,123.498 129.206,114.667 128.74,113.737 128.74,113.273 128.276,109.089 
		126.882,101.188 126.882,100.723 125.953,94.682 125.488,94.682 125.023,89.568 123.165,79.344 122.235,71.442 121.771,69.583 
		120.377,59.823 119.448,50.992 118.054,42.161 117.589,40.302 117.589,39.373 117.125,36.583 117.125,35.19 117.125,34.725 
		116.195,25.894 127.812,26.359 136.176,26.359 139.893,26.823 145.004,26.823 145.932,26.823 146.862,26.823 150.114,26.823 
		156.155,26.823 159.408,26.823 159.873,26.823 162.66,27.288 163.125,27.288 164.983,27.288 168.7,27.288 169.165,27.288 
		169.629,26.823 173.812,26.823 174.276,26.823 174.741,26.823 175.205,26.823 177.529,26.823 182.175,26.823 182.64,26.823 
		183.57,26.823 184.963,26.823 186.821,26.823 187.75,26.823 188.216,26.823 188.68,26.823 189.146,26.823 190.074,26.823 
		191.468,26.823 193.792,26.823 196.579,26.823 197.973,26.823 199.367,26.823 199.833,26.823 201.225,26.823 201.69,26.823 
		202.155,26.823 202.62,26.823 203.549,26.823 204.943,26.823 205.872,26.823 207.266,26.823 209.125,26.823 210.519,26.823 
		211.448,26.823 217.489,26.823 219.347,26.823 222.135,26.823 223.064,26.823 227.71,26.823 229.105,26.823 231.892,26.823 
		232.357,26.823 236.074,26.823 236.539,26.823 240.256,26.823 240.72,26.823 242.115,26.823 255.125,26.823 255.589,26.823 
		260.235,26.823 263.024,26.823 263.953,26.823 265.811,26.823 274.64,26.823 275.57,26.823 281.145,26.823 282.075,26.823 
		288.114,26.823 289.508,26.823 290.438,26.823 290.903,26.823 292.761,26.823 293.226,26.823 300.195,26.823 302.518,26.823 
		308.559,26.823 310.418,26.823 310.882,26.823 321.105,27.288 333.65,27.288 334.579,27.288 346.66,27.288 359.206,27.288 
		359.67,27.288 371.751,27.288 384.761,27.288 385.226,27.288 385.69,27.288 387.549,27.288 389.408,27.288 390.337,27.288 
		392.66,27.288 395.447,27.288 396.377,27.288 401.024,27.288 414.498,27.288 421.003,27.288 424.721,27.288 426.579,27.288 
		427.044,27.288 432.62,27.288 440.518,27.288 443.771,27.753 451.206,27.753 452.599,27.753 466.074,27.753 467.933,27.753 
		471.65,27.753 477.226,27.288 480.943,27.288 486.983,27.288 489.771,27.288 496.276,27.288 500.458,27.288 501.852,27.288 
		504.175,27.288 510.216,27.288 511.145,27.288 517.185,27.288 519.044,27.288 522.761,27.288 528.336,27.288 533.913,27.288 
		534.377,27.288 535.307,27.288 557.145,27.288 557.145,25.894 561.791,25.894 572.943,25.894 587.347,25.429 610.114,24.964 
		613.367,24.964 616.155,24.5 616.619,24.5 619.872,24.5 620.801,24.5 623.125,24.5 628.7,24.035 630.559,24.035 642.175,23.57 
		651.002,23.105 651.467,23.105 652.396,23.105 670.982,22.64 671.447,24.035 671.447,24.964 671.912,25.894 670.982,27.753 
		670.518,28.218 670.055,29.612 668.195,31.471 667.73,32.866 668.195,33.795 667.266,35.19 666.801,35.654 666.801,36.583 
		667.73,37.978 668.195,38.443 668.195,38.908 668.195,39.373 667.73,39.837 667.266,39.837 666.801,39.837 666.336,39.837 
		666.336,40.302 666.336,41.231 665.871,41.697 664.014,43.09 663.549,43.09 663.084,43.09 661.689,42.625 661.225,43.09 
		660.297,43.556 659.832,44.485 659.367,44.949 658.438,44.949 657.973,44.949 657.51,45.415 657.045,46.344 656.578,47.273 
		656.115,47.273 655.186,47.738 655.186,48.204 655.186,48.668 653.791,50.062 652.863,50.527 652.396,50.527 651.933,50.527 
		651.467,51.456 650.074,51.921 649.609,52.851 650.539,54.246 649.609,55.639 648.68,55.639 647.75,54.71 646.357,56.104 
		644.499,55.639 644.034,55.639 643.569,56.104 642.639,56.569 642.175,56.569 642.175,57.499 642.175,57.963 642.175,58.428 
		641.71,59.358 641.246,59.358 640.782,59.358 640.316,60.287 640.316,60.752 640.316,61.217 640.316,61.682 639.852,62.146 
		638.922,62.611 638.922,64.006 638.922,64.47 638.922,64.935 638.458,64.935 637.993,64.935 637.529,64.935 637.064,64.935 
		636.6,64.935 635.67,64.935 635.205,67.259 636.134,68.653 635.67,71.442 635.205,72.372 634.276,72.836 632.417,71.442 
		631.953,70.977 631.024,70.513 630.559,71.442 630.559,72.372 630.095,73.301 629.165,73.301 628.7,73.301 628.236,73.301 
		628.236,73.766 628.236,74.231 628.236,75.16 628.236,76.09 627.771,76.554 625.447,77.484 623.589,80.273 624.518,84.456 
		624.054,86.78 624.518,88.173 622.66,90.034 621.731,91.428 620.337,92.822 618.013,94.216 617.084,96.541 617.084,100.259 
		617.549,100.723 618.013,102.118 618.478,103.047 618.478,103.511 618.013,103.511 618.013,103.977 618.013,104.442 
		618.013,104.906 618.478,105.372 618.478,105.835 618.942,106.301 619.408,106.766 619.872,107.23 620.337,108.16 620.337,108.625 
		620.337,109.089 620.801,109.554 621.266,109.554 621.731,109.554 622.195,109.554 623.125,110.02 624.054,110.484 
		624.518,110.949 624.983,111.413 625.447,112.808 625.913,112.808 626.842,112.342 627.771,112.342 628.7,113.273 628.7,114.667 
		630.559,116.525 631.488,117.456 631.953,117.456 632.882,118.385 633.347,118.849 633.811,119.314 635.205,119.779 
		637.529,120.244 638.922,121.173 640.782,122.568 641.71,123.962 642.175,124.427 642.175,124.891 641.71,126.286 642.639,127.215 
		644.034,127.68 644.499,128.146 644.962,128.146 645.428,128.146 646.821,128.61 648.68,128.146 651.467,129.075 651.933,129.539 
		656.115,129.075 656.578,129.075 657.045,129.075 657.51,129.075 657.973,129.539 658.438,130.004 657.973,130.469 
		657.973,131.399 657.973,133.258 658.438,133.723 661.689,134.187 662.154,136.977 664.943,139.765 665.406,139.765 
		667.266,141.159 667.73,141.159 668.66,141.624 670.982,144.413 671.912,145.341 673.307,147.201 673.307,148.13 673.307,149.06 
		674.701,149.525 675.629,149.06 676.559,149.06 677.488,149.525 678.883,150.919 678.883,151.384 677.023,153.243 677.023,153.708 
		679.812,156.032 680.74,157.427 681.668,157.427 683.529,156.961 684.457,156.961 684.457,157.427 685.387,158.82 685.852,159.75 
		686.781,160.679 688.639,162.074 689.104,162.539 690.035,162.074 695.145,164.863 696.074,165.327 697.469,165.327 
		697.469,164.863 697.469,164.398 697.469,163.933 697.934,163.468 698.396,163.468 701.184,162.074 704.436,162.539 
		705.367,162.539 706.76,163.468 708.156,163.003 709.549,161.144 712.336,161.608 713.268,162.539 713.73,162.539 716.982,161.608 
		718.377,161.144 722.559,163.003 723.953,163.933 724.416,164.398 724.881,164.863 724.416,165.792 724.416,166.722 
		724.416,167.187 726.74,168.117 727.205,168.581 727.67,168.581 727.67,169.046 727.67,169.51 727.67,170.44 727.67,170.905 
		728.6,171.834 729.062,172.299 729.062,175.553 729.992,176.946 730.459,177.877 730.924,178.806 730.924,181.129 730.924,181.594 
		732.316,184.384 732.316,184.848 732.316,186.243 732.316,186.707 732.316,187.172 732.781,187.636 733.246,189.031 
		733.711,191.355 733.711,192.75 733.711,193.214 734.176,193.679 736.498,195.538 738.357,196.932 739.287,197.862 
		742.074,200.186 743.004,200.186 743.004,200.65 743.469,202.51 743.932,202.51 743.932,202.974 743.469,203.905 743.932,204.369 
		743.932,204.834 744.861,208.087 745.793,210.412 746.256,211.805 747.648,213.664 747.648,214.129 748.578,215.059 
		749.973,215.988 750.438,215.988 751.83,217.382 753.227,218.777 754.154,220.171 753.689,220.636 753.689,221.565 754.154,222.96 
		754.619,223.89 754.619,225.749 754.619,226.213 754.619,227.608 755.082,229.931 754.619,230.396 754.619,231.326 755.549,232.72 
		755.549,233.185 755.082,234.115 755.082,235.044 755.549,235.509 757.406,239.228 757.406,239.692 757.406,243.41 
		757.406,243.875 757.873,244.34 759.266,246.199 759.266,246.664 759.73,247.129 759.73,247.593 761.125,251.312 761.59,251.776 
		763.912,253.636 764.842,254.1 765.771,254.565 766.699,254.1 767.164,254.565 768.096,255.495 769.951,256.424 770.416,256.888 
		772.275,259.212 772.275,260.607 772.275,261.072 772.74,261.072 773.205,262.001 773.67,262.466 773.67,262.931 774.135,262.931 
		774.135,263.86 774.598,263.86 775.527,264.79 775.994,264.79 776.922,265.255 778.318,266.649 778.318,267.114 778.318,267.579 
		778.781,268.043 778.318,268.508 777.85,269.902 777.387,270.367 777.387,271.297 777.387,271.762 777.85,272.226 778.781,273.621 
		779.709,274.085 780.174,274.085 780.641,274.085 781.104,274.085 781.568,274.55 782.498,275.945 782.963,276.409 
		782.963,276.875 783.428,277.804 784.82,278.733 785.752,280.592 787.145,281.987 788.539,283.381 789.004,283.846 
		789.004,284.311 789.004,286.635 789.004,287.099 789.004,287.564 789.467,288.029 789.467,288.494 789.932,288.958 
		790.396,291.283 790.863,292.212 791.791,292.676 793.186,293.142 793.65,293.606 793.65,294.071 793.186,294.071 792.719,294.536 
		792.719,295 792.256,295.465 792.256,296.395 792.719,296.86 793.186,297.79 793.65,298.254 795.043,299.183 795.043,299.648 
		795.508,301.043 795.973,302.437 795.973,303.367 797.832,306.155 798.297,306.62 801.086,307.085 801.549,307.085 802.477,306.62 
		802.941,306.62 803.408,306.62 804.338,306.62 804.801,306.62 805.266,306.62 807.588,308.014 808.984,309.874 809.912,311.268 
		810.84,313.126 811.771,314.521 812.236,315.451 815.023,317.31 815.486,317.775 817.811,320.099 820.135,321.493 820.135,321.958 
		821.064,322.887 822.459,323.816 824.316,324.747 824.781,324.747 826.641,326.605 827.105,327.071 827.568,327.535 
		828.496,327.535 829.428,327.535 829.893,327.535 830.357,327.071 831.75,327.071 832.68,327.071 833.607,327.535 834.539,328.93 
		835.932,329.394 836.861,329.859 838.256,330.789 839.65,332.183 840.113,332.647 840.578,333.113 842.902,334.042 
		843.365,334.507 844.297,334.971 845.689,335.437 847.084,336.83 847.549,337.295 848.012,337.295 849.408,338.225 849.873,338.69 
		850.801,339.154 852.195,340.549 852.66,341.014 853.125,341.478 853.125,341.943 854.518,342.873 855.447,343.802 
		855.912,343.802 856.377,344.268 856.377,344.732 856.377,345.197 856.842,345.661 856.377,347.985 856.377,348.45 
		856.842,348.915 857.77,349.38 858.234,348.915 858.699,349.38 859.629,349.844 860.559,350.774 861.488,351.704 863.346,353.098 
		863.811,353.098 864.277,353.098 864.277,353.562 864.74,354.028 864.74,354.492 865.67,354.958 866.133,354.958 866.6,354.958 
		868.457,356.816 868.922,358.675 869.852,361.464 870.316,361.928 870.316,362.858 870.779,363.323 871.246,367.042 871.246,368.9 
		871.711,371.225 872.641,372.154 873.104,372.618 874.031,373.548 874.5,374.013 875.428,374.942 875.893,375.408 876.822,377.266 
		877.285,378.661 877.75,379.125 879.609,380.52 879.609,381.449 879.609,382.378 879.609,385.168 880.537,389.351 880.537,389.816 
		882.861,392.139 884.256,393.534 884.721,393.534 885.648,393.999 885.648,394.463 887.973,394.928 888.438,394.928 
		889.369,395.393 889.832,395.393 890.297,395.858 891.225,397.716 891.689,398.182 893.084,399.111 894.943,400.041 
		895.406,400.506 895.871,400.506 896.336,400.506 896.336,400.041 896.801,400.041 898.195,399.111 898.66,398.646 
		899.123,398.646 900.52,398.646 900.982,398.646 902.842,401.435 903.305,401.899 903.77,402.365 905.631,402.829 907.953,403.294 
		908.883,403.294 909.811,404.223 912.137,406.547 912.6,406.547 913.064,406.547 914.457,407.013 914.922,407.013 916.779,409.335 
		917.711,411.196 918.174,411.66 919.104,412.125 920.033,413.054 920.033,413.984 920.963,414.913 922.822,415.378 
		923.287,415.843 923.75,417.703 923.75,418.167 924.215,418.167 924.68,418.167 925.146,418.632 926.539,421.42 927.469,422.815 
		927.934,423.744 927.934,424.673 927.934,425.603 928.396,426.534 928.861,427.463 929.791,427.927 930.256,428.392 
		931.65,428.856 933.508,429.322 933.973,429.786 934.904,429.786 935.832,430.716 938.156,431.646 939.084,432.11 940.941,432.11 
		941.871,433.041 942.801,433.97 942.801,434.434 943.73,436.293 943.73,436.758 945.125,438.617 945.125,439.082 945.59,439.547 
		945.59,440.011 945.59,440.477 945.59,440.941 945.125,441.406 945.125,441.871 944.193,442.335 943.266,442.8 942.801,443.73 
		942.801,444.66 943.266,445.589 944.193,446.053 944.66,446.519 944.66,446.983 944.193,447.913 943.73,448.377 941.871,448.842 
		940.941,449.307 940.479,449.772 940.479,450.237 940.941,451.167 940.941,451.631 941.871,456.279 942.801,457.208 
		943.266,457.673 943.266,458.603 942.336,459.532 941.408,459.067 940.014,458.138 939.084,458.138 938.619,458.603 
		938.619,459.067 938.619,459.532 939.084,460.461 940.014,461.391 941.408,462.786 940.941,463.715 940.479,464.18 940.014,465.11 
		940.014,465.574 940.479,465.574 940.941,466.039 941.871,466.039 942.336,466.039 943.73,465.574 944.193,465.574 
		945.125,466.504 945.125,468.363 945.125,468.828 946.518,469.758 946.982,470.222 946.982,470.687 947.447,471.151 
		947.912,471.151 948.377,470.222 948.842,469.758 948.842,469.292 949.307,469.292 949.77,469.758 950.236,470.222 
		950.236,471.151 949.77,471.617 950.236,471.617 951.629,472.546 952.561,473.01 953.023,474.87 954.881,475.334 956.275,473.941 
		956.74,473.941 956.74,473.476 956.74,473.941 957.205,473.941 959.992,474.405 960.459,474.87 961.387,475.334 961.387,475.799 
		961.852,476.265 960.924,477.658 960.459,477.658 959.992,477.658 959.527,477.658 959.062,477.658 958.135,478.124 
		958.135,480.448 958.135,480.912 958.135,481.377 958.6,481.377 960.459,481.841 962.314,483.236 963.246,484.166 963.709,484.63 
		963.709,485.56 963.246,486.024 962.781,486.489 961.852,486.489 961.387,486.955 960.459,490.672 960.459,491.602 
		961.852,492.996 963.246,493.461 964.176,493.926 965.57,495.32 966.498,496.715 968.357,497.179 970.215,497.644 970.682,498.108 
		970.682,499.038 971.145,500.433 971.145,500.898 971.609,500.898 974.861,501.827 976.256,501.827 977.648,501.362 
		977.648,500.898 977.648,499.968 977.186,499.038 977.186,498.574 977.186,498.108 977.648,498.108 978.58,498.108 
		979.045,498.574 979.973,499.038 979.973,499.503 980.438,500.433 980.902,502.756 981.367,503.222 981.367,503.686 
		982.295,503.686 982.295,504.151 982.76,504.616 981.83,506.939 981.367,506.939 980.438,507.405 979.045,509.264 980.438,512.052 
		980.902,513.446 981.367,514.841 983.227,517.165 984.154,518.094 986.014,519.489 990.195,522.742 991.125,523.672 
		992.053,524.136 994.84,525.996 995.305,526.46 996.234,525.996 996.701,525.996 999.951,526.925 1004.6,529.249 1005.529,529.714 
		1005.994,529.714 1006.457,530.179 1006.922,530.643 1008.316,531.573 1008.316,532.038 1009.246,532.038 1009.711,532.038 
		1010.174,532.038 1010.641,532.038 1011.104,532.038 1011.57,532.038 1012.498,531.573 1014.822,531.573 1015.285,531.573 
		1015.752,531.573 1016.217,531.573 1016.68,532.038 1016.68,532.967 1016.68,533.896 1016.68,534.362 1016.68,534.826 
		1017.145,534.826 1017.609,534.826 1018.072,534.362 1018.539,534.362 1019.004,534.362 1019.469,535.292 1019.469,535.755 
		1019.004,536.221 1019.004,536.686 1019.004,537.15 1019.004,537.615 1020.396,538.08 1020.861,538.08 1021.326,537.615 
		1021.791,538.08 1022.721,539.009 1023.65,539.939 1024.113,540.869 1025.508,542.262 1026.438,542.262 1026.902,542.262 
		1027.367,542.262 1027.367,541.798 1027.83,541.798 1028.297,541.798 1028.297,542.262 1028.297,542.728 1028.297,543.657 
		1028.297,544.122 1028.762,544.586 1029.227,544.586 1029.689,545.052 1030.154,544.586 1030.619,544.586 1031.086,544.122 
		1032.014,544.122 1032.477,544.586 1032.941,545.981 1033.408,545.981 1037.59,548.769 1038.984,548.769 1039.447,549.234 
		1041.771,552.488 1044.094,553.882 1044.094,554.347 1044.094,557.136 1044.094,557.6 1043.629,562.249 1042.699,565.966 
		1042.699,566.431 1042.236,566.431 1041.771,566.431 1041.307,566.431 1040.842,566.896 1040.842,567.361 1040.842,567.826 
		1040.842,568.29 1040.842,569.22 1040.842,569.685 1041.771,570.614 1042.699,571.543 1042.236,572.938 1042.236,573.868 
		1042.236,574.333 1042.699,574.797 1043.629,574.797 1046.418,577.586 1047.346,579.91 1047.811,581.769 1050.133,583.164 
		1050.598,583.164 1051.064,584.093 1051.064,584.557 1049.67,585.952 1048.275,586.881 1047.811,588.74 1048.742,589.206 
		1049.67,589.67 1050.598,589.67 1051.992,590.135 1053.852,590.135 1053.852,590.6 1053.852,591.064 1054.316,591.529 
		1053.852,594.318 1053.385,595.712 1053.852,596.642 1054.316,597.107 1054.781,597.107 1055.709,596.642 1056.176,596.642 
		1059.891,598.966 1061.287,600.36 1061.752,601.754 1062.215,605.007 1062.215,605.938 1061.752,606.402 1060.82,607.332 
		1060.82,609.656 1060.82,611.514 1060.82,612.908 1060.355,613.375 1059.891,613.838 1059.891,614.304 1059.891,614.767 
		1060.355,615.232 1061.287,615.232 1061.752,615.697 1061.752,616.163 1061.752,616.627 1061.752,617.093 1061.287,617.093 
		1060.82,617.556 1060.82,618.021 1060.82,618.487 1060.82,618.952 1061.752,618.952 1062.215,619.415 1062.68,620.345 
		1063.143,620.811 1063.143,621.276 1063.143,622.204 1063.143,622.669 1063.143,623.135 1063.143,623.6 1063.143,624.065 
		1063.607,624.065 1064.074,624.065 1064.539,624.528 1064.539,624.994 1064.539,625.458 1064.539,625.924 1064.074,626.389 
		1062.68,628.246 1062.215,631.5 1062.215,633.825 1060.82,636.614 1060.82,637.077 1063.607,638.472 1064.074,638.938 
		1064.539,638.938 1064.539,638.472 1065.004,638.472 1065.467,638.472 1065.932,640.332 1066.863,642.19 1066.863,643.119 
		1066.396,645.908 1065.932,647.303 1065.932,647.769 1066.396,648.697 1066.863,648.697 1067.791,648.697 1068.721,649.627 
		1069.186,650.092 1068.721,650.557 1066.863,652.416 1066.396,652.416 1066.396,653.809 1066.863,653.809 1066.863,654.275 
		1065.932,655.67 1065.467,655.67 1065.004,655.67 1065.004,655.203 1064.539,653.809 1064.074,653.809 1063.607,654.275 
		1063.607,654.738 1063.607,656.135 1063.607,656.598 1065.004,658.922 1065.004,659.387 1066.863,660.783 1068.256,662.641 
		1069.186,663.105 1070.113,664.965 1072.438,666.822 1072.9,666.822 1073.365,666.822 1073.832,665.895 1074.297,665.895 
		1074.762,666.359 1075.225,666.359 1075.225,668.219 1075.689,670.076 1077.549,671.008 1078.012,671.008 1079.871,671.936 
		1084.52,673.797 1085.912,674.26 1086.377,674.26 1086.842,674.26 1089.166,673.797 1090.094,673.332 1091.023,673.332 
		1091.488,673.332 1091.953,673.332 1092.418,673.797 1093.346,674.26 1095.205,675.189 1095.67,675.654 1096.6,677.979 
		1097.064,678.443 1097.064,678.908 1096.6,679.836 1096.6,680.303 1096.6,680.766 1097.064,681.232 1098.457,682.162 
		1099.852,683.557 1102.176,684.949 1102.639,685.414 1103.104,684.949 1104.031,684.949 1105.891,685.414 1106.355,685.414 
		1106.355,686.346 1106.355,686.811 1105.891,686.811 1105.428,687.273 1105.428,687.738 1105.428,688.201 1106.822,690.525 
		1108.215,691.457 1111.467,695.641 1114.721,698.428 1115.648,699.359 1116.113,699.359 1117.045,698.895 1117.508,698.895 
		1117.508,699.359 1117.508,699.824 1116.113,701.684 1115.186,702.611 1114.256,702.611 1114.256,703.076 1113.791,703.539 
		1113.791,704.008 1114.256,704.471 1114.256,704.936 1114.721,704.936 1114.256,705.4 1114.256,705.863 1113.791,706.33 
		1113.326,706.795 1112.861,707.26 1113.791,710.512 1115.186,712.373 1116.113,713.766 1117.508,714.697 1119.367,717.484 
		1120.297,718.877 1120.297,720.738 1119.367,722.133 1119.832,722.133 1120.297,722.598 1121.225,723.99 1122.154,724.922 
		1122.619,725.387 1122.154,725.852 1122.154,726.314 1122.154,726.779 1122.154,727.244 1124.014,728.174 1124.943,729.104 
		1125.871,730.035 1125.871,730.498 1125.871,730.963 1126.336,730.963 1126.801,730.963 1127.268,730.963 1127.268,730.498 
		1127.268,730.035 1128.195,729.568 1128.658,729.568 1129.123,730.035 1130.52,731.891 1130.52,732.357 1130.982,732.357 
		1130.982,733.752 1130.053,735.146 1130.053,735.611 1130.52,736.539 1131.447,738.863 1132.842,740.725 1133.307,740.725 
		1133.307,741.188 1133.771,741.652 1134.234,745.836 1134.234,746.301 1134.234,746.766 1133.771,747.229 1132.377,749.553 
		1131.912,750.02 1130.52,750.949 1130.053,751.414 1128.658,753.273 1128.195,755.596 1126.336,757.92 1126.336,758.85 
		1126.336,759.314 1126.801,759.779 1126.801,760.244 1127.268,760.709 1128.195,762.566 1128.658,763.033 1129.123,763.498 
		1129.59,764.428 1130.982,766.752 1132.842,768.146 1134.234,770.004 1134.701,771.398 1135.166,772.328 1135.629,773.258 
		1135.629,774.188 1135.166,775.115 1135.166,776.047 1135.166,776.512 1135.166,776.977 1134.701,776.977 1134.234,777.904 
		1133.307,778.836 1132.842,779.301 1132.842,779.764 1133.307,779.764 1134.701,780.229 1134.701,780.695 1135.166,782.553 
		1135.166,783.018 1135.629,785.342 1135.629,785.809 1135.629,787.666 1135.629,788.129 1135.629,789.061 1136.094,792.314 
		1137.023,793.709 1137.488,794.172 1140.275,794.172 1141.668,794.172 1142.135,794.172 1142.135,795.104 1143.064,796.033 
		1143.992,796.963 1148.174,799.75 1148.639,799.75 1149.568,800.215 1150.035,800.215 1151.891,800.68 1152.357,800.68 
		1153.75,800.68 1154.68,801.145 1156.072,800.68 1158.396,799.285 1158.861,798.822 1159.793,797.426 1160.721,796.496 
		1161.648,796.033 1162.113,796.496 1162.58,796.496 1163.508,796.963 1164.436,797.891 1165.367,798.822 1166.295,800.68 
		1167.225,802.074 1168.154,802.539 1170.943,803.469 1172.803,803.934 1174.193,804.863 1176.518,807.652 1178.842,809.977 
		1180.699,811.836 1181.629,812.301 1182.561,812.764 1184.416,812.764 1188.6,813.229 1189.992,813.229 1193.709,815.088 
		1196.498,816.018 1197.893,815.088 1199.75,816.018 1200.682,819.271 1200.682,819.736 1200.215,821.596 1199.75,823.453 
		1199.285,825.314 1199.285,825.777 1198.822,825.777 1198.357,826.709 1196.033,830.889 1193.246,832.75 1191.387,833.68 
		1188.135,836.467 1184.881,837.861 1180.699,837.861 1180.699,834.609 1177.912,834.609 1177.447,834.609 1176.055,834.609 
		1170.943,839.256 1170.479,841.115 1170.479,843.902 1171.871,846.227 1175.125,847.158 1178.377,846.693 1179.77,847.623 
		1177.447,850.875 1176.982,851.34 1171.406,856.453 1166.76,862.031 1165.367,862.031 1163.508,861.102 1161.648,859.24 
		1157.469,857.848 1155.609,857.383 1152.357,857.383 1150.963,856.916 1150.498,856.916 1150.035,856.916 1150.963,860.172 
		1151.891,862.494 1151.426,864.354 1150.963,865.748 1147.711,868.074 1148.174,870.398 1152.357,871.791 1153.75,871.791 
		1154.215,871.326 1156.072,871.791 1157.002,872.254 1157.002,874.113 1156.072,875.51 1154.68,876.902 1152.822,881.088 
		1150.035,886.199 1148.174,888.523 1143.992,890.381 1143.992,890.848 1143.527,890.848 1140.74,894.102 1136.094,899.213 
		1135.166,899.678 1134.234,899.678 1130.52,898.281 1129.123,897.818 1121.689,896.889 1120.297,898.75 1119.367,900.605 
		1123.549,905.254 1129.123,908.043 1130.982,907.115 1131.447,905.719 1131.912,905.719 1134.234,905.254 1136.094,906.65 
		1135.166,909.902 1135.166,912.227 1136.559,917.803 1136.094,926.168 1132.842,934.07 1130.52,940.578 1127.73,944.762 
		1126.336,944.762 1124.943,943.367 1124.479,941.506 1122.619,941.506 1120.297,941.506 1117.973,944.295 1111.934,946.156 
		1108.68,945.227 1107.285,947.086 1106.822,949.873 1106.822,951.268 1106.822,951.732 1107.752,952.197 1110.074,952.197 
		1117.508,952.664 1118.438,952.197 1121.689,949.873 1123.084,950.34 1125.871,952.197 1126.801,953.592 1126.801,954.988 
		1124.014,958.705 1120.762,967.07 1115.648,974.506 1112.396,979.619 1111.467,981.016 1108.68,986.127 1104.963,995.422 
		1104.5,996.352 1104.5,1000.533 1103.568,1007.041 1105.891,1007.041 1107.285,1007.506 1110.539,1009.83 1109.145,1013.084 
		1106.822,1015.871 1105.891,1017.266 1105.891,1026.562 1104.5,1029.352 1103.104,1034.463 1103.104,1037.717 1103.104,1038.646 
		1102.176,1039.576 1101.711,1039.576 1099.387,1040.041 1097.529,1039.576 1091.953,1045.154 1088.234,1050.73 1086.842,1053.518 
		1086.842,1053.984 1087.307,1055.379 1086.842,1055.842 1085.912,1057.703 1085.447,1059.096 1084.982,1059.096 1084.52,1059.096 
		1081.732,1060.027 1080.801,1060.027 1078.012,1060.027 1078.012,1060.955 1077.549,1062.352 1077.084,1066.998 1078.012,1073.041 
		1078.012,1076.293 1075.225,1088.844 1073.832,1091.631 1072.9,1092.559 1071.043,1092.559 1070.578,1092.096 1070.578,1091.631 
		1068.721,1091.631 1066.863,1092.096 1065.467,1093.49 1065.004,1094.883 1062.68,1097.674 1058.033,1100.461 1057.104,1102.785 
		1058.963,1104.645 1059.428,1105.109 1061.287,1105.574 1062.215,1104.645 1063.607,1104.18 1066.396,1105.574 1068.256,1107.896 
		1071.043,1107.896 1072.9,1107.896 1074.297,1103.25 1075.225,1102.32 1077.084,1102.32 1077.084,1102.785 1078.477,1107.434 
		1078.477,1108.828 1078.477,1110.688 1078.477,1120.91 1074.297,1136.248 1073.365,1140.434 1072.9,1141.828 1070.578,1144.615 
		1069.186,1147.406 1067.791,1152.053 1067.326,1152.982 1067.326,1153.91 1066.396,1158.559 1066.396,1162.742 1066.396,1165.066 
		1066.863,1165.996 1066.863,1166.461 1068.256,1170.643 1069.186,1172.967 1070.578,1174.828 1069.648,1174.828 1066.863,1174.828 
		1065.932,1174.361 1065.467,1174.361 1064.539,1173.896 1063.607,1173.896 1063.143,1173.434 1061.287,1171.109 1060.355,1170.643 
		1059.891,1170.643 1057.568,1171.109 1055.709,1171.572 1053.852,1171.572 1052.457,1171.572 1050.598,1171.572 1050.133,1171.572 
		1049.67,1172.037 1049.67,1172.502 1049.205,1172.967 1049.205,1173.434 1048.742,1173.896 1048.275,1174.361 1047.811,1174.361 
		1047.346,1174.361 1046.881,1174.361 1046.881,1173.896 1046.418,1173.896 1045.953,1173.434 1045.023,1173.434 1043.164,1173.896 
		1042.699,1173.434 1041.771,1173.434 1041.771,1172.967 1040.842,1172.037 1040.375,1172.037 1039.447,1172.037 1037.123,1171.572 
		1035.73,1171.109 1034.801,1171.109 1033.871,1170.643 1032.941,1170.643 1032.941,1171.572 1032.477,1172.502 1032.014,1172.502 
		1031.086,1172.502 1030.154,1172.502 1029.689,1172.037 1029.689,1171.572 1029.227,1170.18 1028.762,1169.715 1028.297,1169.248 
		1027.367,1169.715 1026.902,1169.715 1026.438,1170.18 1023.184,1171.109 1022.721,1170.643 1022.256,1170.643 1021.791,1169.715 
		1021.791,1168.785 1021.791,1167.391 1021.791,1166.924 1021.326,1166.461 1020.861,1166.461 1019.469,1165.996 1019.004,1165.996 
		1018.072,1165.996 1018.072,1166.461 1017.609,1167.391 1017.609,1167.855 1017.145,1167.855 1016.68,1167.855 1013.428,1167.391 
		1012.498,1166.924 1012.498,1165.996 1012.033,1165.531 1009.246,1165.996 1008.781,1165.996 1007.85,1166.461 1006.457,1166.924 
		1005.994,1166.924 1004.135,1165.996 1003.205,1165.531 1000.416,1162.742 1000.416,1162.277 1000.416,1161.812 999.951,1161.348 
		999.486,1161.348 999.486,1160.883 999.023,1160.883 998.559,1160.883 997.629,1160.42 996.701,1159.953 995.771,1159.023 
		994.377,1159.023 993.912,1159.488 993.449,1160.42 992.982,1160.883 992.053,1160.883 991.125,1160.42 990.66,1159.488 
		990.195,1158.096 988.803,1156.234 987.873,1156.234 985.551,1154.842 985.082,1154.842 982.76,1155.305 982.295,1155.305 
		980.902,1155.305 980.438,1155.305 978.115,1155.771 977.648,1156.234 977.186,1155.771 976.721,1155.305 976.256,1154.842 
		974.861,1153.91 971.145,1154.377 970.682,1154.377 969.285,1152.518 967.893,1151.123 966.033,1149.264 965.57,1148.334 
		965.104,1147.406 964.639,1146.939 963.709,1146.939 963.246,1146.939 962.781,1147.406 962.314,1147.869 962.314,1148.334 
		960.924,1148.334 957.672,1147.869 955.348,1147.406 955.348,1146.939 954.416,1146.01 953.488,1145.545 952.094,1145.545 
		949.77,1147.406 949.307,1147.869 949.307,1148.334 948.842,1149.264 949.307,1150.658 949.307,1152.982 949.307,1153.91 
		946.982,1158.096 946.518,1159.023 945.59,1159.488 945.125,1159.488 944.66,1159.488 943.266,1158.559 942.801,1158.096 
		941.408,1156.699 939.084,1155.305 938.619,1155.305 936.295,1155.305 934.904,1156.699 934.904,1157.166 934.904,1157.629 
		936.295,1159.953 937.689,1163.207 937.689,1163.672 936.295,1165.531 933.973,1166.461 933.043,1166.461 932.113,1166.461 
		931.65,1166.924 931.65,1167.391 931.186,1168.785 931.186,1170.18 931.186,1171.109 930.721,1172.502 931.186,1173.434 
		931.65,1173.896 931.65,1174.361 932.113,1175.291 932.58,1178.545 931.186,1182.262 929.326,1186.447 929.326,1186.91 
		929.326,1187.375 929.791,1192.488 930.256,1193.418 931.186,1193.883 932.113,1195.742 932.113,1196.205 932.113,1197.137 
		932.58,1198.529 933.508,1199.459 934.438,1201.318 935.367,1203.643 934.904,1205.504 936.76,1206.432 937.689,1206.432 
		937.689,1206.896 938.619,1208.756 939.084,1211.543 939.547,1212.01 939.547,1213.404 940.014,1216.191 940.479,1217.121 
		938.619,1220.842 937.689,1225.953 937.225,1227.811 937.689,1228.275 937.689,1228.742 937.689,1229.205 938.156,1229.205 
		938.619,1230.6 938.619,1231.066 938.619,1231.531 938.156,1234.318 938.156,1235.246 938.156,1235.713 937.689,1236.178 
		938.156,1237.57 938.156,1239.895 938.156,1240.361 938.156,1240.824 936.76,1243.148 936.295,1244.08 936.295,1245.473 
		935.832,1248.26 935.367,1249.191 933.973,1251.051 933.508,1251.98 934.438,1253.838 934.438,1255.232 933.973,1256.162 
		933.043,1257.557 932.58,1258.486 932.58,1260.346 933.043,1262.205 933.973,1265.459 933.973,1267.318 933.508,1268.246 
		933.043,1269.176 932.58,1269.643 931.65,1271.5 930.721,1271.5 928.396,1271.965 926.539,1272.432 923.75,1272.432 
		920.498,1271.965 919.568,1271.5 919.104,1271.5 919.104,1271.035 918.641,1271.035 919.104,1270.57 918.641,1270.107 
		918.174,1270.107 916.316,1270.57 915.389,1270.57 913.529,1270.57 913.529,1271.035 912.6,1271.035 909.346,1271.5 
		905.631,1272.895 904.701,1273.359 904.234,1273.359 902.842,1272.895 902.377,1272.895 902.377,1272.432 900.52,1270.57 
		899.59,1269.176 898.195,1268.246 897.268,1267.783 895.406,1263.598 894.479,1261.74 893.084,1255.232 893.084,1253.375 
		894.012,1251.98 894.479,1250.121 894.479,1248.26 894.012,1246.867 893.547,1246.867 893.547,1245.936 894.479,1243.613 
		894.943,1241.756 894.943,1238.967 893.547,1237.107 892.154,1235.246 890.76,1233.854 889.369,1232.924 888.9,1232.459 
		887.973,1230.6 888.438,1229.67 887.973,1227.811 887.045,1226.418 886.578,1225.023 886.578,1223.164 887.508,1220.375 
		887.508,1219.91 888.438,1218.518 889.369,1218.051 890.76,1217.586 891.689,1217.121 891.225,1216.656 883.326,1216.191 
		881.467,1215.729 874.5,1215.729 854.055,1214.332 843.832,1213.867 834.074,1213.404 818.74,1212.473 816.418,1212.473 
		814.094,1212.01 812.236,1212.01 809.447,1212.01 808.52,1212.01 805.266,1211.543 780.641,1210.615 778.318,1210.15 
		736.498,1207.826 736.033,1207.826 722.094,1206.896 694.68,1205.504 680.277,1204.572 678.883,1204.572 677.488,1204.572 
		676.094,1204.572 671.447,1204.107 669.59,1204.107 667.73,1204.107 667.266,1204.107 664.014,1203.643 648.215,1202.713 
		645.428,1202.713 635.67,1201.783 635.205,1201.783 628.236,1201.318 624.518,1201.318 619.408,1200.854 617.084,1200.854 
		607.791,1200.391 605.003,1199.924 603.145,1199.924 591.063,1199.459 583.165,1198.994 582.701,1198.994 575.73,1198.529 
		565.043,1198.066 558.074,1197.6 550.64,1197.137 550.175,1197.137 534.377,1196.205 519.044,1195.277 518.579,1195.277 
		516.255,1194.812 508.357,1194.348 502.316,1194.348 473.043,1192.488 470.256,1192.488 465.145,1192.023 464.681,1192.023 
		463.751,1192.023 461.428,1192.023 457.71,1191.559 454.923,1191.559 454.458,1191.559 449.346,1191.094 447.489,1191.094 
		447.023,1191.094 445.63,1191.094 438.195,1190.629 416.357,1189.234 415.428,1189.234 408.923,1189.234 387.084,1187.842 
		386.155,1187.842 385.69,1187.842 375.468,1187.375 368.963,1186.91 365.71,1186.91 363.852,1186.91 351.771,1185.98 
		349.912,1185.98 348.983,1185.98 346.195,1185.516 333.186,1185.053 328.539,1184.586 324.357,1184.123 319.71,1184.123 
		319.246,1184.123 316.923,1183.656 305.307,1183.193 290.438,1182.262 279.75,1181.799 273.246,1181.334 272.781,1181.334 
		271.852,1178.545 270.458,1177.15 268.599,1175.756 268.135,1175.291 267.67,1173.434 265.811,1170.643 265.347,1170.643 
		264.883,1170.643 263.953,1170.643 263.488,1170.643 263.024,1170.643 262.094,1170.643 261.63,1170.18 261.63,1169.715 
		261.63,1169.248 261.165,1167.855 260.701,1167.391 260.235,1166.461 260.701,1165.066 260.701,1164.137 260.701,1163.207 
		258.842,1159.953 258.377,1159.953 258.377,1159.488 258.377,1159.023 258.377,1158.559 257.913,1158.096 258.377,1156.699 
		258.377,1156.234 257.913,1154.842 256.519,1152.982 256.519,1152.053 256.519,1150.658 256.519,1149.264 256.983,1148.334 
		257.448,1147.406 257.913,1146.939 257.913,1146.473 258.377,1146.01 258.377,1145.545 258.377,1144.615 257.913,1144.152 
		257.448,1143.686 256.983,1142.758 256.983,1142.291 256.983,1141.828 256.983,1140.896 256.983,1140.434 256.983,1139.969 
		256.519,1139.039 256.054,1138.572 256.054,1137.645 256.054,1137.18 256.983,1136.248 256.983,1135.785 256.983,1135.32 
		256.519,1134.393 256.054,1134.393 255.589,1133.926 255.125,1133.461 253.73,1131.137 252.801,1129.744 251.873,1128.348 
		249.548,1125.559 249.084,1124.631 248.62,1122.771 247.69,1122.307 246.296,1121.379 245.832,1120.91 245.832,1120.447 
		245.832,1119.055 245.832,1118.123 245.832,1117.658 246.296,1116.73 246.761,1115.799 246.761,1115.334 246.761,1114.406 
		246.761,1113.941 245.832,1112.545 245.368,1112.082 244.902,1111.617 242.579,1111.152 242.115,1111.152 241.186,1110.688 
		240.72,1110.221 240.72,1109.758 240.72,1109.293 240.72,1108.828 241.186,1106.969 241.186,1106.504 241.65,1104.18 
		241.65,1103.717 241.65,1103.25 241.65,1101.857 242.115,1100.928 242.115,1099.531 241.186,1098.139 240.72,1096.744 
		239.791,1094.42 240.256,1091.631 240.256,1091.166 239.327,1088.844 239.327,1088.379 237.933,1087.447 235.61,1083.266 
		235.61,1082.801 235.61,1082.336 236.074,1080.479 235.145,1077.223 234.681,1076.293 233.751,1073.969 233.751,1073.504 
		232.822,1073.041 231.428,1071.645 230.499,1071.18 230.034,1071.18 230.034,1070.717 229.569,1070.717 229.569,1070.252 
		229.105,1069.787 228.175,1066.998 227.71,1065.604 227.246,1064.674 225.853,1063.279 225.387,1062.352 224.923,1061.42 
		224.458,1060.955 224.458,1060.49 223.064,1060.027 220.741,1060.027 219.347,1058.631 218.882,1058.631 218.882,1058.168 
		219.347,1055.379 219.347,1054.449 218.882,1053.518 218.418,1053.055 217.953,1053.055 217.489,1053.055 217.489,1052.59 
		217.489,1052.127 217.489,1050.266 217.489,1048.406 217.953,1047.941 219.347,1046.547 219.347,1046.082 219.347,1043.758 
		219.812,1042.365 219.347,1040.506 219.347,1040.041 219.347,1039.576 218.882,1039.111 218.418,1037.717 217.953,1036.322 
		217.023,1034.463 216.559,1033.533 216.559,1033.068 216.094,1031.676 216.559,1030.746 216.559,1029.814 216.559,1028.887 
		216.094,1028.422 216.559,1027.492 217.023,1027.027 217.489,1027.027 217.953,1027.027 219.347,1026.562 219.812,1026.562 
		220.276,1025.633 221.206,1025.168 221.206,1024.703 221.67,1023.773 222.135,1021.451 222.135,1020.984 222.135,1020.055 
		222.599,1019.127 223.064,1017.732 223.064,1017.266 223.064,1014.479 222.135,1013.084 222.135,1012.617 222.135,1012.154 
		222.599,1011.225 222.599,1008.9 222.599,1007.971 222.599,1007.506 221.67,1007.506 221.206,1006.576 221.206,1005.646 
		221.206,1005.182 221.206,1004.719 222.135,1002.857 222.599,1002.395 222.599,1001.928 223.528,999.604 223.994,996.816 
		224.458,996.352 224.923,995.422 224.923,994.492 224.458,993.1 224.458,992.633 224.458,992.168 224.923,990.775 225.387,989.381 
		225.387,988.451 225.853,987.986 226.781,987.986 227.246,987.986 227.246,987.52 227.71,987.057 227.71,986.127 227.71,984.732 
		227.71,983.803 227.71,982.408 226.781,981.016 226.317,976.83 227.71,972.648 228.64,971.719 229.569,969.395 230.963,966.605 
		231.892,964.746 231.892,964.281 232.357,963.816 232.822,963.354 232.822,962.887 231.892,961.957 231.892,961.492 
		232.357,960.562 232.822,959.17 233.286,958.705 233.286,958.24 233.751,957.311 233.751,956.844 233.286,956.381 233.286,955.916 
		232.357,954.988 231.428,953.127 230.963,952.664 230.963,951.268 230.034,949.408 229.569,948.943 230.034,948.479 
		230.499,947.551 230.499,947.086 230.034,946.619 229.569,945.691 229.569,944.762 229.569,942.902 230.034,941.506 
		230.034,941.043 230.499,940.113 230.034,939.65 229.569,939.182 229.105,939.182 229.105,938.254 229.569,937.326 
		230.034,936.859 230.034,936.395 230.034,935.93 229.569,935.467 228.175,934.537 227.71,934.537 226.317,933.143 224.923,931.281 
		223.994,930.816 223.528,930.354 223.528,929.889 223.528,929.424 223.994,928.029 224.458,928.029 224.458,927.564 224.458,927.1 
		224.458,926.637 223.994,926.168 223.528,925.705 223.064,925.705 222.135,925.24 222.135,924.777 217.953,920.129 
		217.489,918.268 217.023,917.803 215.166,916.41 214.7,915.48 214.236,915.48 214.236,914.551 214.236,913.619 214.236,911.764 
		214.236,909.439 214.236,908.975 214.7,908.975 215.166,908.043 216.094,905.719 216.094,905.254 215.166,901.537 214.236,900.141 
		214.236,899.213 213.771,898.281 214.236,897.354 214.7,896.889 214.7,895.961 214.7,895.494 214.236,895.494 213.307,894.564 
		212.841,894.102 211.448,892.705 210.983,892.705 210.983,892.24 210.983,891.777 211.913,890.381 212.841,889.453 
		213.307,888.523 213.307,888.059 212.841,887.592 212.841,887.127 212.841,884.805 213.307,884.34 213.307,883.412 
		213.307,882.945 213.307,882.48 213.307,882.016 212.841,880.156 212.377,878.762 211.913,878.299 211.448,877.832 
		211.448,877.367 210.983,876.439 210.983,875.975 211.448,875.975 211.913,875.045 211.913,874.578 211.913,873.186 
		211.448,872.254 211.448,871.791 211.448,871.326 211.913,870.861 212.377,870.398 212.841,868.074 214.236,866.678 
		214.236,866.213 214.236,865.748 214.236,864.818 213.771,864.818 213.771,864.354 213.307,863.889 212.841,862.961 
		212.841,862.494 213.307,862.031 216.094,862.031 216.559,862.031 217.023,862.031 217.489,862.031 217.953,861.564 
		218.418,861.102 218.418,860.172 218.882,858.777 218.418,857.848 217.953,857.383 217.953,856.916 218.882,856.453 
		220.276,855.525 220.741,855.061 220.741,853.664 221.206,853.199 222.599,852.27 223.994,850.412 224.458,850.412 225.853,849.48 
		225.853,849.018 224.923,848.088 223.994,844.834 223.994,844.369 224.458,843.902 224.923,843.439 226.781,842.975 
		227.71,842.512 228.175,842.045 228.64,841.115 228.64,840.65 228.64,840.186 227.71,839.256 227.71,838.328 228.175,836.934 
		228.175,835.537 228.175,835.074 228.64,834.143 229.105,832.75 229.569,832.285 231.428,830.426 231.892,829.496 231.428,828.566 
		231.892,827.637 231.892,827.172 231.892,826.709 231.892,826.242 231.428,826.242 231.428,825.777 230.963,825.777 
		230.963,824.85 231.428,823.918 231.428,823.453 231.428,822.99 231.428,822.523 230.963,821.596 230.499,820.666 230.963,818.805 
		231.428,817.877 230.963,817.412 231.428,816.484 231.892,815.088 231.892,814.158 231.428,813.693 231.428,813.229 
		231.892,811.371 232.357,810.904 233.286,810.439 233.286,809.977 233.286,809.047 232.822,807.652 231.892,804.398 
		231.428,802.539 230.499,799.75 230.034,798.355 230.034,797.426 230.499,796.963 230.963,796.496 232.822,795.104 
		233.286,795.104 233.751,794.639 236.539,791.385 236.539,790.92 237.468,789.525 238.397,788.596 241.186,785.809 241.65,784.877 
		242.579,784.412 245.368,783.482 250.478,781.625 251.873,781.16 252.337,780.229 252.337,779.764 252.337,779.301 
		252.337,778.836 251.873,778.371 251.873,777.904 252.337,777.441 252.337,776.977 252.801,776.977 252.801,776.512 
		253.266,776.047 253.73,775.582 253.73,775.115 254.196,775.115 255.125,775.115 256.054,774.652 257.913,774.652 258.377,774.652 
		260.701,774.188 261.165,774.188 261.63,773.723 262.094,772.793 262.094,771.863 262.094,771.398 262.094,770.934 
		262.559,770.469 263.953,769.539 264.417,767.68 264.417,767.215 264.417,766.752 265.347,766.752 265.811,766.287 
		266.276,766.287 266.276,765.822 266.741,765.822 266.741,765.357 267.206,764.428 268.135,764.428 269.064,763.963 
		269.529,763.498 269.529,763.033 269.529,762.566 269.064,762.102 269.064,761.639 266.741,759.779 264.883,758.85 
		262.559,756.525 259.771,752.809 258.842,752.342 256.519,751.414 255.125,750.484 254.66,750.484 247.226,747.229 
		244.902,746.766 244.438,746.301 243.043,744.906 243.043,744.439 243.043,742.582 243.509,740.26 245.368,738.863 
		246.761,737.471 247.226,737.004 247.69,736.539 248.155,736.539 248.155,736.074 248.62,735.611 248.62,734.682 248.62,734.215 
		248.62,733.287 249.548,732.822 249.548,732.357 249.548,731.891 249.548,730.963 249.548,730.498 249.548,729.568 
		249.548,729.104 249.548,728.174 250.014,728.174 250.014,727.244 250.014,726.314 249.548,725.387 249.084,724.922 
		249.548,723.525 249.548,722.133 251.407,721.201 253.266,719.346 253.266,718.877 252.337,716.09 251.407,713.766 248.62,713.301 
		246.296,711.908 246.296,710.977 245.368,708.652 245.368,708.188 245.368,707.725 245.368,706.795 245.832,705.863 
		246.296,704.936 246.296,704.471 246.296,703.539 246.296,703.076 246.296,702.146 245.832,701.217 245.832,700.752 
		245.368,699.824 245.368,699.359 245.368,698.428 245.368,697.498 244.902,696.57 244.902,695.641 244.902,695.174 
		244.902,694.711 244.902,694.246 244.438,693.781 243.509,691.922 243.043,691.922 242.115,691.457 241.65,690.525 
		241.186,690.062 240.72,689.133 240.256,688.201 240.256,687.738 240.256,687.273 240.256,686.811 237.468,684.021 
		237.003,684.021 232.357,678.908 230.034,677.049 228.175,673.332 227.71,672.865 227.246,671.008 226.781,670.541 
		226.781,669.148 226.781,668.684 226.781,666.822 226.317,666.359 225.853,666.359 225.853,665.895 225.387,665.895 
		225.387,664.965 224.923,664.498 224.923,664.035 225.387,663.57 225.387,663.105 225.853,662.641 225.853,662.176 
		225.387,662.176 224.923,661.711 224.458,661.246 223.528,660.783 223.064,659.852 223.064,659.387 223.064,658.922 
		223.528,657.994 223.994,657.062 224.923,656.135 225.387,655.67 223.994,652.416 222.135,650.092 221.67,649.627 220.276,648.697 
		219.812,648.697 219.347,648.232 219.347,647.769 218.882,646.373 217.489,640.332 217.489,639.867 217.953,638.938 
		217.953,638.472 217.953,638.007 218.418,637.077 218.418,636.148 218.418,635.683 218.418,634.754 218.418,634.29 217.953,634.29 
		217.953,633.825 217.489,632.894 217.023,632.894 216.559,632.429 215.63,631.5 214.7,630.57 214.236,629.642 213.771,627.781 
		214.236,626.852 214.7,625.458 214.7,624.994 215.166,624.528 215.63,624.065 215.63,623.6 215.63,622.669 215.166,622.204 
		213.771,621.276 213.307,620.345 212.377,619.88 211.448,618.952 210.983,618.952 210.983,618.487 208.661,616.163 
		208.195,615.232 207.266,613.838 207.266,613.375 207.266,612.445 207.266,610.586 207.266,609.192 207.731,609.192 
		208.195,608.262 208.195,607.797 209.125,606.867 209.59,606.402 209.59,605.938 209.59,605.473 209.125,605.007 209.125,604.543 
		209.125,604.078 209.125,603.614 208.661,603.149 208.195,603.149 207.731,603.149 207.266,603.149 206.337,602.685 
		205.872,602.685 205.408,602.685 205.408,602.219 204.943,602.219 204.943,601.754 204.478,601.754 204.014,600.825 
		204.014,600.36 203.549,599.895 203.549,598.5 204.014,598.5 204.014,598.037 203.549,597.571 203.549,597.107 203.549,596.642 
		203.549,596.177 203.549,595.247 203.085,595.247 203.085,592.924 203.085,592.459 202.62,590.135 202.155,586.417 
		201.225,583.164 199.833,574.333 199.833,572.009 198.438,563.643 197.973,562.713 195.649,547.84 195.649,545.981 
		193.792,533.896 192.862,527.855 192.397,526.46 192.397,524.602 191.468,519.024 189.61,506.01 188.68,500.898 188.216,497.644 
		187.287,491.137 184.963,475.799 183.104,464.645 182.64,460.461 180.782,447.448 180.317,446.053 179.852,443.73 178.458,432.575 
		176.134,419.561 176.134,418.167 176.134,417.703 174.741,407.942 174.276,406.083 172.882,396.323 172.417,394.928 
		171.024,386.562 170.559,381.915 170.095,379.125 170.095,378.196 168.236,366.577 167.771,362.858 167.306,360.535 
		167.306,360.07 166.377,355.421 166.377,353.562 165.913,349.844 165.448,348.915 164.054,339.62 163.589,336.83 163.125,333.113 
		163.125,332.647 163.125,331.253 162.196,325.676 161.267,320.564 161.267,319.169 158.478,302.437 158.478,301.507 
		157.084,292.676 157.084,292.212 157.084,291.747 155.691,283.846 154.297,273.156 153.832,270.833 152.438,262.001 
		152.438,261.537 151.973,258.748 151.508,254.1 151.044,252.241 149.65,243.41 149.65,241.086 149.185,238.298 146.862,224.819 
		146.862,223.89 146.397,220.636 145.932,219.707 145.468,215.059 145.004,213.664 144.074,207.622 143.609,203.905 
		143.145,199.256 142.68,198.792 141.286,189.496 140.822,186.243 138.499,173.229 137.105,164.398 137.105,163.933 136.64,161.144 
		136.176,158.82 135.71,156.961 135.246,152.313 134.781,150.455 134.317,149.06 133.853,145.807 131.993,133.258 	"/>
</g>
</svg>
